<svg id="formulario" xmlns="http://www.w3.org/2000/svg" width="80.764" height="109.397" viewBox="0 0 80.764 109.397">
  <path id="Trazado_15757" data-name="Trazado 15757" d="M75.466,2a8.955,8.955,0,0,1,3.421,1.811c8.36,6.9,15.958,15.484,24.355,22.432a7.9,7.9,0,0,1,2.722,4.114l.05,75.795a6.08,6.08,0,0,1-5.657,5.244H30.7a6.058,6.058,0,0,1-5.45-5.45V7.232A6.309,6.309,0,0,1,30.17,2h45.29ZM68.417,9.48H32.736v94.431h65.8V37.681h-21.9c-3.983,0-8.223-3.69-8.223-7.8ZM93.2,30.2,75.89,13.962v15.49a1.237,1.237,0,0,0,.749.749Z" transform="translate(-25.25 -2)" fill="#582e73"/>
  <path id="Trazado_15758" data-name="Trazado 15758" d="M107.783,81.39v7.692H68.368s-.318-.3-.318-.318V81.715s.3-.318.318-.318h39.415Z" transform="translate(-41.328 -31.824)" fill="#582e73"/>
  <path id="Trazado_15759" data-name="Trazado 15759" d="M107.783,105.34v7.692H68.368s-.318-.3-.318-.318v-7.049s.3-.318.318-.318h39.415Z" transform="translate(-41.328 -40.821)" fill="#582e73"/>
  <path id="Trazado_15760" data-name="Trazado 15760" d="M107.783,129.29v7.692H68.368s-.318-.3-.318-.318v-7.049s.3-.318.318-.318h39.415Z" transform="translate(-41.328 -49.818)" fill="#582e73"/>
  <path id="Trazado_15761" data-name="Trazado 15761" d="M51.447,104.031c6.175-.649,6.968,9.072.568,9.359C46.322,113.64,45.385,104.668,51.447,104.031Z" transform="translate(-33.535 -40.318)" fill="#582e73"/>
  <path id="Trazado_15762" data-name="Trazado 15762" d="M51.45,127.986c6.225-.549,6.837,8.916.787,9.359C46.243,137.788,45.412,128.517,51.45,127.986Z" transform="translate(-33.538 -49.319)" fill="#582e73"/>
  <path id="Trazado_15763" data-name="Trazado 15763" d="M51.45,80.083c5.219-.549,7.192,7.074,2.117,8.965C46.918,91.527,44.6,80.807,51.45,80.083Z" transform="translate(-33.538 -31.322)" fill="#582e73"/>
</svg>
