<svg xmlns="http://www.w3.org/2000/svg" width="131.017" height="106.251" viewBox="0 0 131.017 106.251">
  <g id="Agilizar_los_plazos" data-name="Agilizar los plazos" transform="translate(65.508 53.126)">
    <g id="Agilizar_los_plazos-2" data-name="Agilizar los plazos" transform="translate(-65.508 -53.126)">
      <g id="OBJECTS" transform="translate(0 0)">
        <g id="Grupo_45352" data-name="Grupo 45352">
          <path id="Trazado_17491" data-name="Trazado 17491" d="M130.99,67.53l-4.95-33.87.02-.03h-.02l-.21-1.48a1.494,1.494,0,0,0-.51-.93,1.52,1.52,0,0,0-.99-.37h-.05a1.438,1.438,0,0,0-.67.16L86.05,49.48a1.511,1.511,0,0,0,.25,2.81l13.96,4.05,4.23,17.14.14.53a1.517,1.517,0,0,0,1.03.94,1.737,1.737,0,0,0,.39.05,1.5,1.5,0,0,0,1.01-.39l.36-.37,8.94-9.4,12.65,4.35a1.622,1.622,0,0,0,.49.08,1.5,1.5,0,0,0,.97-.35,1.517,1.517,0,0,0,.53-1.38Zm-7.32-34.16L107.41,61.28a1.924,1.924,0,0,0-.18.45l-1.99,8.1-2.93-13.37Zm-22.05,21.6L87.37,50.84l35-17.21Zm7.24,7.15,5.57,1.91-8.14,8.56,2.57-10.48Zm15.82-28.16,4.92,33.69L109.68,60.8Z" fill="#307479"/>
          <g id="Grupo_45350" data-name="Grupo 45350">
            <path id="Trazado_17492" data-name="Trazado 17492" d="M107.25,19.23a1.64,1.64,0,0,1-1.24-.48,53.665,53.665,0,0,0-70.56-4.1,1.66,1.66,0,1,1-2.04-2.62,56.829,56.829,0,0,1,74.93,4.37,1.661,1.661,0,0,1-1.1,2.84Z" fill="#307479"/>
            <path id="Trazado_17493" data-name="Trazado 17493" d="M26.33,22.14a1.66,1.66,0,0,1-1.65-2.18l3.94-11.9a1.666,1.666,0,0,1,2.82-.58l8.34,9.37a1.691,1.691,0,0,1,.34,1.63,1.668,1.668,0,0,1-1.24,1.1L26.6,22.12a1.153,1.153,0,0,1-.26.03Zm4.54-10.31-2.13,6.44,6.64-1.37Z" fill="#307479"/>
            <path id="Trazado_17494" data-name="Trazado 17494" d="M114.55,27.27a2.065,2.065,0,0,1-.6-.08l-11.9-3.94a1.666,1.666,0,0,1-.58-2.82l9.37-8.34a1.691,1.691,0,0,1,1.63-.34,1.668,1.668,0,0,1,1.1,1.24l2.54,12.28a1.678,1.678,0,0,1-.52,1.58,1.658,1.658,0,0,1-1.03.42ZM105.82,21l6.44,2.13-1.37-6.64Z" fill="#307479"/>
          </g>
          <path id="Trazado_17495" data-name="Trazado 17495" d="M61.66,105.86A56.643,56.643,0,0,1,32.94,93.9,1.659,1.659,0,1,1,35,91.3a53.631,53.631,0,0,0,70.59-3.47,1.662,1.662,0,1,1,2.31,2.39,56.934,56.934,0,0,1-46.25,15.64Z" fill="#307479"/>
          <path id="Trazado_17496" data-name="Trazado 17496" d="M111.28,94.95a1.625,1.625,0,0,1-.92-.42l-9.29-8.42a1.657,1.657,0,0,1,.61-2.81l11.94-3.84a1.661,1.661,0,0,1,2.13,1.93L113.1,93.65a1.672,1.672,0,0,1-1.82,1.3Zm-5.85-9.37,5.03,4.56,1.43-6.63-6.46,2.08Z" fill="#307479"/>
          <path id="Trazado_17497" data-name="Trazado 17497" d="M29.5,98.97a.453.453,0,0,1-.16-.03,1.663,1.663,0,0,1-1.23-1.12L24.27,85.88a1.661,1.661,0,0,1,1.93-2.13L38.46,86.4a1.664,1.664,0,0,1,.88,2.74l-8.42,9.29a1.626,1.626,0,0,1-1.42.53ZM28.32,87.62l2.08,6.46,4.56-5.03-6.63-1.43Z" fill="#307479"/>
          <g id="_804_Email_Auction_Gavel_Law" data-name=" 804 Email Auction Gavel Law">
            <g id="Grupo_45351" data-name="Grupo 45351">
              <path id="Trazado_17498" data-name="Trazado 17498" d="M9.58,37.91H4.13a3.925,3.925,0,0,0-2.82,1.11h0A4.2,4.2,0,0,0,0,42.05V70.99a3.937,3.937,0,0,0,1.01,2.72h0a4.313,4.313,0,0,0,3.12,1.41H44.36a4.081,4.081,0,0,0,4.13-4.13V42.05a3.582,3.582,0,0,0-1.41-3.13h0a4.331,4.331,0,0,0-2.72-1.01ZM47.07,70.88a2.743,2.743,0,0,1-.6,1.71L29.14,57.97,46.47,40.22a2.828,2.828,0,0,1,.6,1.82V70.88ZM43.58,39.44a2.413,2.413,0,0,1,1.21.3L24.04,60.76,3.92,39.89a2.441,2.441,0,0,1,1.51-.4c4.94-.1,33.21-.04,38.15-.04ZM2.22,72.09a3.3,3.3,0,0,1-.4-1.41V42.35a3.028,3.028,0,0,1,.5-1.61L18.55,57.88Zm3.12,1.42a3.162,3.162,0,0,1-1.62-.48L19.77,59.27l3.73,3.92a.532.532,0,0,0,.86,0l3.82-3.82L44.8,73.22a2.955,2.955,0,0,1-1.24.29Z" fill="#307479"/>
              <path id="Trazado_17499" data-name="Trazado 17499" d="M12,43.56H36a.645.645,0,0,0,.6-.6.655.655,0,0,0-.6-.61H12a.647.647,0,0,0-.6.61A.637.637,0,0,0,12,43.56Z" fill="#307479"/>
              <path id="Trazado_17500" data-name="Trazado 17500" d="M33.47,45.48H14.52a.645.645,0,0,0-.6.6.655.655,0,0,0,.6.61H33.48a.647.647,0,0,0,.6-.61.637.637,0,0,0-.6-.6Z" fill="#307479"/>
              <path id="Trazado_17501" data-name="Trazado 17501" d="M30.35,48.6H17.75a.647.647,0,0,0-.6.61.637.637,0,0,0,.6.6h12.6a.605.605,0,1,0,0-1.21Z" fill="#307479"/>
            </g>
          </g>
        </g>
        <g id="Grupo_45355" data-name="Grupo 45355">
          <g id="Grupo_45353" data-name="Grupo 45353">
            <path id="Trazado_17502" data-name="Trazado 17502" d="M58.53,52.49h0v5.24a10.058,10.058,0,0,0,3.81,7.9,3.819,3.819,0,0,1,1.49,2.98v.48a3.834,3.834,0,0,1-1.49,2.98,10.058,10.058,0,0,0-3.81,7.9v4.69H78.79V79.97a10.058,10.058,0,0,0-3.81-7.9,3.819,3.819,0,0,1-1.49-2.98v-.48a3.834,3.834,0,0,1,1.49-2.98,10.058,10.058,0,0,0,3.81-7.9V52.5H58.53Zm18.85,5.24a8.7,8.7,0,0,1-3.28,6.81,5.237,5.237,0,0,0-2.02,4.07v.48a5.222,5.222,0,0,0,2.02,4.07,8.7,8.7,0,0,1,3.28,6.81v3.29H59.93V79.97a8.7,8.7,0,0,1,3.28-6.81,5.222,5.222,0,0,0,2.02-4.07v-.48a5.222,5.222,0,0,0-2.02-4.07,8.7,8.7,0,0,1-3.28-6.81V53.9H77.38Z" fill="#307479"/>
            <path id="Trazado_17503" data-name="Trazado 17503" d="M64.48,63.01a7.258,7.258,0,0,1,2.73,5.57v.88a7.29,7.29,0,0,1-2.73,5.57,6.546,6.546,0,0,0-2.37,5.03v1.26H75.2V80.06a6.514,6.514,0,0,0-2.37-5.03,7.258,7.258,0,0,1-2.73-5.57v-.88a7.258,7.258,0,0,1,2.73-5.57,6.675,6.675,0,0,0,1.75-2.25H62.74A6.619,6.619,0,0,0,64.48,63.01Z" fill="#307479"/>
          </g>
          <g id="Grupo_45354" data-name="Grupo 45354">
            <path id="Trazado_17504" data-name="Trazado 17504" d="M97.27,68.58h0a1.37,1.37,0,0,1-1.37,1.37H92.74a1.37,1.37,0,0,1-1.37-1.37h0a1.37,1.37,0,0,1,1.37-1.37H95.9A1.37,1.37,0,0,1,97.27,68.58Z" fill="#e4eff0"/>
            <path id="Trazado_17505" data-name="Trazado 17505" d="M84.18,68.57h0a1.37,1.37,0,0,1-1.37,1.37H79.65a1.37,1.37,0,0,1-1.37-1.37h0a1.37,1.37,0,0,1,1.37-1.37h3.16A1.37,1.37,0,0,1,84.18,68.57Z" fill="#4d7378"/>
            <path id="Trazado_17506" data-name="Trazado 17506" d="M87.78,72.17h0a1.379,1.379,0,0,1,1.37,1.37V76.7a1.379,1.379,0,0,1-1.37,1.37h0a1.379,1.379,0,0,1-1.37-1.37V73.54A1.379,1.379,0,0,1,87.78,72.17Z" fill="#64989e"/>
            <path id="Trazado_17507" data-name="Trazado 17507" d="M87.78,59.08h0a1.379,1.379,0,0,1,1.37,1.37v3.16a1.379,1.379,0,0,1-1.37,1.37h0a1.379,1.379,0,0,1-1.37-1.37V60.45A1.379,1.379,0,0,1,87.78,59.08Z" fill="#304749"/>
            <path id="Trazado_17508" data-name="Trazado 17508" d="M90.33,71.12h0a1.382,1.382,0,0,1,1.94,0l2.23,2.23a1.382,1.382,0,0,1,0,1.94h0a1.382,1.382,0,0,1-1.94,0l-2.23-2.23A1.382,1.382,0,0,1,90.33,71.12Z" fill="#cadee0"/>
            <path id="Trazado_17509" data-name="Trazado 17509" d="M81.07,61.86h0a1.382,1.382,0,0,1,1.94,0l2.23,2.23a1.382,1.382,0,0,1,0,1.94h0a1.382,1.382,0,0,1-1.94,0L81.07,63.8A1.382,1.382,0,0,1,81.07,61.86Z" fill="#3e5c61"/>
            <path id="Trazado_17510" data-name="Trazado 17510" d="M85.24,71.12h0a1.382,1.382,0,0,1,0,1.94l-2.23,2.23a1.382,1.382,0,0,1-1.94,0h0a1.382,1.382,0,0,1,0-1.94l2.23-2.23A1.382,1.382,0,0,1,85.24,71.12Z" fill="#5b898e"/>
            <path id="Trazado_17511" data-name="Trazado 17511" d="M94.49,61.86h0a1.382,1.382,0,0,1,0,1.94l-2.23,2.23a1.382,1.382,0,0,1-1.94,0h0a1.382,1.382,0,0,1,0-1.94l2.23-2.23A1.382,1.382,0,0,1,94.49,61.86Z" fill="#edf4f5"/>
          </g>
        </g>
      </g>
    </g>
  </g>
</svg>
