<svg xmlns="http://www.w3.org/2000/svg" width="100.447" height="111.29" viewBox="0 0 100.447 111.29">
  <g id="Certeza_tr치mite" data-name="Certeza tr치mite" transform="translate(50.223 55.645)">
    <g id="Certeza_tr치mite-2" data-name="Certeza tr치mite" transform="translate(-50.223 -55.645)">
      <g id="OBJECTS">
        <g id="Grupo_45356" data-name="Grupo 45356">
          <path id="Trazado_17512" data-name="Trazado 17512" d="M69.42,111.29H1.48A1.47,1.47,0,0,1,0,109.81V1.48A1.477,1.477,0,0,1,1.48,0H80.9a1.47,1.47,0,0,1,1.48,1.48V60.43a1.7,1.7,0,0,1-.42,1.06,1.618,1.618,0,0,1-1.06.42h-.04a8.139,8.139,0,0,0-4.62,14.84,1.469,1.469,0,0,1,.64,1.19V90.61a1.47,1.47,0,0,1-1.48,1.48H69.85a5.676,5.676,0,0,0-5.68,5.68v4.66h5.26a1.47,1.47,0,0,1,1.48,1.48v5.93a1.462,1.462,0,0,1-1.48,1.44ZM2.97,108.36H67.98v-3.01H62.72a1.47,1.47,0,0,1-1.48-1.48V97.72a8.606,8.606,0,0,1,8.6-8.6h4.07V78.65a11.077,11.077,0,0,1,5.51-19.63V2.97H2.97V108.36Z" fill="#307479"/>
          <path id="Trazado_17513" data-name="Trazado 17513" d="M23.01,104.8A15.72,15.72,0,1,1,38.73,89.08,15.716,15.716,0,0,1,23.01,104.8Zm0-28.52a12.8,12.8,0,1,0,12.8,12.8A12.812,12.812,0,0,0,23.01,76.28Z" fill="#307479"/>
          <path id="Trazado_17514" data-name="Trazado 17514" d="M71.71,41.07H10.76a1.47,1.47,0,0,1-1.48-1.48,1.452,1.452,0,0,1,1.48-1.48H71.7a1.47,1.47,0,0,1,1.48,1.48,1.5,1.5,0,0,1-1.48,1.48Z" fill="#307479"/>
          <path id="Trazado_17515" data-name="Trazado 17515" d="M71.71,50.43H10.76a1.47,1.47,0,0,1-1.48-1.48,1.452,1.452,0,0,1,1.48-1.48H71.7a1.47,1.47,0,0,1,1.48,1.48,1.5,1.5,0,0,1-1.48,1.48Z" fill="#307479"/>
          <path id="Trazado_17516" data-name="Trazado 17516" d="M71.71,59.84H10.76a1.47,1.47,0,0,1-1.48-1.48,1.452,1.452,0,0,1,1.48-1.48H71.7a1.48,1.48,0,1,1,0,2.96Z" fill="#307479"/>
          <path id="Trazado_17517" data-name="Trazado 17517" d="M65.26,69.21H10.76a1.47,1.47,0,0,1-1.48-1.48,1.452,1.452,0,0,1,1.48-1.48H65.3a1.47,1.47,0,0,1,1.48,1.48,1.507,1.507,0,0,1-1.53,1.48Z" fill="#307479"/>
          <path id="Trazado_17518" data-name="Trazado 17518" d="M68.7,31.7H13.73a4.447,4.447,0,0,1-4.45-4.45V17.84a4.447,4.447,0,0,1,4.45-4.45H68.7a4.447,4.447,0,0,1,4.45,4.45v9.41A4.447,4.447,0,0,1,68.7,31.7ZM13.73,16.27A1.524,1.524,0,0,0,12.2,17.8v9.41a1.524,1.524,0,0,0,1.53,1.53H68.7a1.524,1.524,0,0,0,1.53-1.53V17.8a1.524,1.524,0,0,0-1.53-1.53Z" fill="#307479"/>
          <path id="Trazado_17519" data-name="Trazado 17519" d="M19.11,95.91h0a1.517,1.517,0,0,1-1.02-.42l-2.88-2.88a1.517,1.517,0,0,1,0-2.08,1.443,1.443,0,0,1,2.08,0l1.86,1.86,9.7-9.7a1.443,1.443,0,0,1,2.08,0,1.517,1.517,0,0,1,0,2.08L20.21,95.49A1.909,1.909,0,0,1,19.11,95.91Z" fill="#307479"/>
          <path id="Trazado_17520" data-name="Trazado 17520" d="M86.37,92.09H75.44a1.47,1.47,0,0,1-1.48-1.48V78.66a11.06,11.06,0,1,1,13.82,0V90.61a1.4,1.4,0,0,1-1.4,1.48Zm-9.49-2.92h8.01V77.94a1.457,1.457,0,0,1,.64-1.19,8.14,8.14,0,1,0-9.24,0,1.469,1.469,0,0,1,.64,1.19l-.04,11.23h-.01Z" fill="#307479"/>
          <path id="Trazado_17521" data-name="Trazado 17521" d="M99.04,105.4H62.72a1.47,1.47,0,0,1-1.48-1.48V97.77a8.606,8.606,0,0,1,8.6-8.6h22a8.606,8.606,0,0,1,8.6,8.6v6.15A1.375,1.375,0,0,1,99.04,105.4Zm-34.83-2.93h33.4V97.81a5.676,5.676,0,0,0-5.68-5.68h-22a5.676,5.676,0,0,0-5.68,5.68v4.66Z" fill="#307479"/>
          <path id="Trazado_17522" data-name="Trazado 17522" d="M92.35,111.29H69.42a1.47,1.47,0,0,1-1.48-1.48v-5.93a1.47,1.47,0,0,1,1.48-1.48H92.35a1.47,1.47,0,0,1,1.48,1.48v5.93A1.5,1.5,0,0,1,92.35,111.29ZM70.9,108.36H90.86v-3.01H70.9v3.01Z" fill="#307479"/>
        </g>
      </g>
    </g>
  </g>
</svg>
