<svg xmlns="http://www.w3.org/2000/svg" width="120.28" height="111.72" viewBox="0 0 120.28 111.72">
  <g id="Facilitar_el_derecho" data-name="Facilitar el derecho" transform="translate(60.14 55.86)">
    <g id="Facilitar_el_derecho-2" data-name="Facilitar el derecho" transform="translate(-60.14 -55.86)">
      <g id="OBJECTS">
        <g id="Grupo_45359" data-name="Grupo 45359">
          <g id="_814_Certification_Degree_Diploma" data-name=" 814 Certification Degree Diploma">
            <g id="Grupo_45358" data-name="Grupo 45358">
              <path id="Trazado_17536" data-name="Trazado 17536" d="M82.95,111.71H99.9a1.4,1.4,0,0,0,1.3-1.31V19.13a9.456,9.456,0,0,0,8.48-9.56c0-5-4.56-9.57-10-9.57H32.53C23.84.22,17.1,6.52,17.1,15v95.41c0,.65.65,1.31,2.32,1.31H82.95ZM105.69,10.6a6.5,6.5,0,0,1-6.76,6.55H39.32a8.89,8.89,0,0,0,3.17-6.55,8.68,8.68,0,0,0-2.96-6.55H98.51c4.02,0,7.19,2.96,7.19,6.55ZM20.72,107.42V15.89C20.72,9.13,26,4.26,33.19,4.05a6.877,6.877,0,0,1,6.55,6.55c0,3.38-3.17,6.34-6.98,6.55h-.42a.206.206,0,0,0-.21.21l-.21.21-.21.21a.206.206,0,0,1-.21.21v.42h0v.42l.21.21.21.21.21.21a.206.206,0,0,1,.21.21H97.66v87.51l-76.94.21Z" fill="#307479"/>
              <path id="Trazado_17537" data-name="Trazado 17537" d="M32.76,31.74H57.92a1.27,1.27,0,1,0,0-2.54H32.76a1.366,1.366,0,0,0-1.27,1.27C31.28,31.1,31.91,31.74,32.76,31.74Z" fill="#307479"/>
              <path id="Trazado_17538" data-name="Trazado 17538" d="M85.61,35.76H32.76a1.27,1.27,0,0,0,0,2.54H85.61a1.27,1.27,0,0,0,0-2.54Z" fill="#307479"/>
              <path id="Trazado_17539" data-name="Trazado 17539" d="M85.61,42.31H32.76a1.27,1.27,0,1,0,0,2.54H85.61a1.27,1.27,0,0,0,0-2.54Z" fill="#307479"/>
              <path id="Trazado_17540" data-name="Trazado 17540" d="M85.61,48.86H32.76a1.27,1.27,0,0,0,0,2.54H85.61a1.27,1.27,0,0,0,0-2.54Z" fill="#307479"/>
              <path id="Trazado_17541" data-name="Trazado 17541" d="M112.25,22.44a8.03,8.03,0,1,0,8.03,8.03A8.023,8.023,0,0,0,112.25,22.44Zm0,13.32a5.28,5.28,0,1,1,5.28-5.28A5.231,5.231,0,0,1,112.25,35.76Z" fill="#307479"/>
              <path id="Trazado_17542" data-name="Trazado 17542" d="M6.55,88.6a6.55,6.55,0,1,0,0,13.1,6.55,6.55,0,1,0,0-13.1Zm0,10.57a4.02,4.02,0,0,1,0-8.04,3.887,3.887,0,0,1,4.02,4.02A4.163,4.163,0,0,1,6.55,99.17Z" fill="#307479"/>
              <path id="Trazado_17543" data-name="Trazado 17543" d="M107.59,49.08a1.9,1.9,0,1,1-1.9,1.9A1.9,1.9,0,0,1,107.59,49.08Z" fill="#307479"/>
              <path id="Trazado_17544" data-name="Trazado 17544" d="M115.63,2.78a1.9,1.9,0,1,1-1.9,1.9A1.9,1.9,0,0,1,115.63,2.78Z" fill="#307479"/>
              <path id="Trazado_17545" data-name="Trazado 17545" d="M5.92,8.07a1.9,1.9,0,1,1-1.9,1.9A1.9,1.9,0,0,1,5.92,8.07Z" fill="#307479"/>
              <path id="Trazado_17546" data-name="Trazado 17546" d="M9.94,45.06a1.9,1.9,0,1,1-1.9,1.9A1.9,1.9,0,0,1,9.94,45.06Z" fill="#307479"/>
              <path id="Trazado_17547" data-name="Trazado 17547" d="M4.65,72.75a1.9,1.9,0,1,1-1.9,1.9A1.9,1.9,0,0,1,4.65,72.75Z" fill="#307479"/>
              <path id="Trazado_17548" data-name="Trazado 17548" d="M114.15,87.34a1.9,1.9,0,1,1-1.9,1.9A1.9,1.9,0,0,1,114.15,87.34Z" fill="#307479"/>
            </g>
          </g>
          <g id="_805_Court_Justice_Label_Law_Tag" data-name=" 805 Court Justice Label Law Tag">
            <path id="Trazado_17549" data-name="Trazado 17549" d="M88.86,102.52a2.9,2.9,0,0,1-4.01,0L67.76,85.42l4.01-4.01,17.1,17.1a2.9,2.9,0,0,1,0,4.01ZM63.35,89.84a1.714,1.714,0,0,1,.53,1.34,1.824,1.824,0,0,1-1.87,1.87,1.727,1.727,0,0,1-1.34-.53L50.39,82.24a1.888,1.888,0,1,1,2.67-2.67L63.34,89.85ZM55.61,79.55,66.03,69.13l7.88,7.88L63.49,87.43Zm19.9-3.07h0l-9.62-9.62a1.714,1.714,0,0,1-.53-1.34,1.824,1.824,0,0,1,1.87-1.87,1.714,1.714,0,0,1,1.34.53L78.85,74.46a1.888,1.888,0,0,1-2.67,2.67c0-.13.4.27-.67-.67Zm5.16,11.24-7.58-7.58,2.11-2.11h0a3.776,3.776,0,1,0,5.34-5.34L69.73,61.88a3.776,3.776,0,0,0-5.34,5.34h0L53.44,78.17h0a3.776,3.776,0,0,0-5.34,5.34L58.91,94.32a3.776,3.776,0,1,0,5.34-5.34h0l2.11-2.11,7.58,7.58,1.26,1.12,9.27,9.27a4.667,4.667,0,0,0,6.6-6.6L81.8,88.97l-1.12-1.26Z" fill="#307479"/>
          </g>
        </g>
      </g>
    </g>
  </g>
</svg>
