<?xml version="1.0" encoding="UTF-8"?>
<svg id="Layer_2" data-name="Layer 2" xmlns="http://www.w3.org/2000/svg" viewBox="0 0 850.1 248.63">
  <defs>
    <style>
      .cls-1 {
        fill: #80004c;
      }

      .cls-2, .cls-3 {
        fill: none;
      }

      .cls-2, .cls-4 {
        stroke: #d5007f;
        stroke-linecap: round;
        stroke-linejoin: round;
        stroke-width: 3.43px;
      }

      .cls-5 {
        fill: #a0005f;
      }

      .cls-3 {
        stroke: #000;
        stroke-miterlimit: 10;
        stroke-width: 6.86px;
      }

      .cls-4 {
        fill: #d5007f;
      }
    </style>
  </defs>
  <g id="SLIDE_3" data-name="SLIDE 3">
    <g>
      <g>
        <path d="M309.25,104.35h-21.45V.27h21.45v104.08Z"/>
        <path d="M347.13,27.01l.64,8.65c5.48-6.72,12.89-10.08,22.23-10.08,9.96,0,16.8,3.93,20.52,11.79,5.43-7.86,13.18-11.79,23.23-11.79,8.39,0,14.63,2.44,18.73,7.33,4.1,4.88,6.15,12.24,6.15,22.05v49.39h-20.73v-49.32c0-4.38-.86-7.59-2.57-9.62-1.71-2.02-4.74-3.04-9.08-3.04-6.2,0-10.49,2.96-12.87,8.87l.07,53.11h-20.66v-49.25c0-4.48-.88-7.72-2.64-9.72-1.77-2-4.77-3-9.01-3-5.86,0-10.11,2.43-12.72,7.29v54.69h-20.66V27.01h19.37Z"/>
        <path d="M524.13,66.39c0,11.91-2.71,21.46-8.11,28.63-5.41,7.17-12.71,10.76-21.91,10.76-7.81,0-14.13-2.72-18.94-8.15v36.46h-20.66V27.01h19.16l.71,7.58c5-6.01,11.53-9.01,19.59-9.01,9.53,0,16.94,3.53,22.23,10.58,5.29,7.05,7.93,16.77,7.93,29.16v1.07ZM503.47,64.89c0-7.19-1.28-12.75-3.83-16.66-2.55-3.91-6.25-5.86-11.11-5.86-6.48,0-10.94,2.48-13.37,7.44v31.67c2.53,5.1,7.03,7.65,13.51,7.65,9.87,0,14.8-8.08,14.8-24.23Z"/>
        <path d="M583.25,96.49c-5.1,6.2-12.16,9.29-21.16,9.29-8.29,0-14.62-2.38-18.98-7.15s-6.59-11.75-6.68-20.95V27.01h20.66v50.02c0,8.07,3.67,12.09,11.01,12.09s11.82-2.43,14.44-7.3V27.01h20.73v77.35h-19.44l-.57-7.86Z"/>
        <path d="M615.85,65.11c0-11.87,2.82-21.42,8.47-28.66s13.26-10.87,22.84-10.87c8.48,0,15.09,2.91,19.8,8.72l.86-7.29h18.73v74.77c0,6.77-1.54,12.65-4.61,17.66-3.07,5-7.4,8.82-12.97,11.44-5.58,2.62-12.11,3.93-19.59,3.93-5.67,0-11.2-1.13-16.58-3.4-5.39-2.26-9.46-5.18-12.23-8.76l9.15-12.58c5.15,5.77,11.39,8.65,18.73,8.65,5.48,0,9.74-1.47,12.8-4.4,3.05-2.93,4.58-7.09,4.58-12.47v-4.15c-4.77,5.39-11.03,8.08-18.8,8.08-9.29,0-16.81-3.63-22.56-10.9-5.74-7.27-8.61-16.9-8.61-28.92v-.86ZM636.5,66.65c0,7.02,1.41,12.52,4.22,16.5,2.81,3.99,6.67,5.98,11.58,5.98,6.29,0,10.8-2.36,13.51-7.09v-32.57c-2.77-4.73-7.22-7.09-13.37-7.09-4.96,0-8.85,2.03-11.69,6.09-2.83,4.06-4.25,10.12-4.25,18.18Z"/>
        <path d="M721.43,27.01l.64,8.94c5.53-6.91,12.94-10.37,22.23-10.37,8.2,0,14.3,2.41,18.3,7.22s6.05,12.01,6.15,21.59v49.97h-20.66v-49.47c0-4.38-.95-7.56-2.86-9.54-1.91-1.98-5.07-2.97-9.51-2.97-5.81,0-10.18,2.48-13.08,7.44v54.54h-20.66V27.01h19.44Z"/>
        <path d="M829.23,104.35c-.95-1.86-1.64-4.17-2.07-6.93-5,5.58-11.51,8.36-19.52,8.36-7.58,0-13.86-2.19-18.83-6.58-4.98-4.38-7.47-9.91-7.47-16.58,0-8.2,3.04-14.49,9.11-18.87,6.08-4.38,14.86-6.6,26.34-6.65h9.51v-4.43c0-3.57-.92-6.43-2.75-8.58-1.84-2.15-4.73-3.22-8.69-3.22-3.48,0-6.21.83-8.19,2.5-1.98,1.67-2.97,3.96-2.97,6.86h-20.66c0-4.48,1.38-8.62,4.15-12.44,2.76-3.82,6.67-6.8,11.72-8.97,5.05-2.17,10.73-3.25,17.02-3.25,9.53,0,17.1,2.39,22.7,7.18s8.4,11.52,8.4,20.19v33.52c.05,7.34,1.07,12.89,3.07,16.66v1.22h-20.87ZM812.14,89.98c3.05,0,5.86-.68,8.43-2.04,2.57-1.36,4.48-3.18,5.72-5.47v-13.29h-7.72c-10.34,0-15.84,3.57-16.51,10.72l-.07,1.22c0,2.57.9,4.69,2.72,6.36s4.29,2.5,7.44,2.5Z"/>
      </g>
      <g>
        <path d="M304.12,247.13h-12.07v-58.58h12.07v58.58Z"/>
        <path d="M362.94,247.13h-12.07l-23.5-38.54v38.54h-12.07v-58.58h12.07l23.54,38.62v-38.62h12.03v58.58Z"/>
        <path d="M408.72,221.74h-23.18v15.69h27.2v9.7h-39.27v-58.58h39.19v9.78h-27.12v13.96h23.18v9.46Z"/>
      </g>
      <g>
        <path class="cls-1" d="M214.65,24.53c-54.34-1.49-88.04-17.34-99.14-23.48-2.52-1.39-5.59-1.39-8.11,0-11.1,6.14-44.8,21.99-99.14,23.48-4.61.13-8.26,3.99-8.26,8.65v59.86c0,59.29,32.21,113.79,83.85,141.9l22.99,12.51c2.88,1.57,6.35,1.57,9.23,0l22.99-12.51c51.64-28.11,83.85-82.61,83.85-141.9v-59.86c0-4.66-3.65-8.53-8.26-8.65ZM211.89,91.02c0,56.54-30.56,108.3-79.76,135.08l-16.31,8.87c-1.36.74-2.86,1.11-4.36,1.11s-3.01-.38-4.36-1.11l-16.31-8.87C41.58,199.32,11.02,147.57,11.02,91.02v-50.8c0-2.4,1.9-4.37,4.3-4.54,46.28-3.15,78.06-15.41,94.15-23.27.64-.32,1.31-.47,1.99-.47s1.35.15,1.99.47c16.08,7.86,47.87,20.12,94.15,23.27,2.4.17,4.3,2.14,4.3,4.54v50.8Z"/>
        <g>
          <g id="_9156_-_For" data-name="9156 - For">
            <g>
              <path class="cls-5" d="M81.42,82.04c-4.66,0-8.44-3.78-8.44-8.44v-12.68c0-4.66,3.78-8.44,8.44-8.44s8.44,3.78,8.44,8.44v12.68c.04,4.63-3.78,8.44-8.44,8.44ZM81.42,55.82c-2.79,0-5.05,2.26-5.05,5.05v12.68c0,2.79,2.26,5.05,5.05,5.05s5.05-2.26,5.05-5.05v-12.68c.04-2.79-2.26-5.05-5.05-5.05Z"/>
              <path class="cls-5" d="M94.95,82.04c-4.66,0-8.44-3.78-8.44-8.44v-15.23c0-4.66,3.78-8.44,8.44-8.44s8.44,3.78,8.44,8.44v15.23c.04,4.63-3.78,8.44-8.44,8.44ZM94.95,53.28c-2.79,0-5.05,2.26-5.05,5.05v15.23c0,2.79,2.26,5.05,5.05,5.05s5.05-2.26,5.05-5.05v-15.23c.04-2.79-2.26-5.05-5.05-5.05Z"/>
              <path class="cls-5" d="M122.02,76.1h-.28c-4.52-.14-8.2-4.03-8.2-8.62v-14.88c0-4.7,3.75-8.55,8.34-8.62,2.3-.04,4.49.85,6.11,2.47,1.59,1.59,2.47,3.75,2.47,5.97v4.35c0,.95-.74,1.7-1.7,1.7s-1.7-.74-1.7-1.7v-4.35c0-1.34-.53-2.61-1.48-3.57-.99-.99-2.3-1.48-3.64-1.48-2.76.04-4.98,2.4-4.98,5.23v14.91c0,2.79,2.19,5.12,4.91,5.23,2.37.07,4.45-1.45,5.05-3.75.25-.92,1.17-1.45,2.08-1.2.92.25,1.45,1.17,1.2,2.08-1.02,3.71-4.38,6.22-8.2,6.22Z"/>
              <path class="cls-5" d="M148.23,71.61c-.95,0-1.7-.74-1.7-1.7v-7.49c0-2.4-1.94-4.35-4.35-4.35h-11.17c-.6,0-1.17.11-1.7.28-.71.25-1.38.67-1.91,1.2-.95.95-1.48,2.23-1.48,3.57,0,2.08,1.27,3.96,3.22,4.7.6.25,1.24.35,1.87.35h2.79c.95,0,1.7.74,1.7,1.7s-.74,1.7-1.7,1.7h-2.79c-1.1,0-2.12-.21-3.11-.6-3.25-1.27-5.34-4.38-5.34-7.84,0-2.26.88-4.38,2.47-5.97.88-.88,1.98-1.59,3.18-1.98.88-.32,1.84-.49,2.83-.49h11.13c4.28,0,7.74,3.46,7.74,7.74v7.49c0,.92-.74,1.7-1.7,1.7Z"/>
              <path class="cls-5" d="M108.49,80.34c-4.66,0-8.44-3.78-8.44-8.44v-17.21c0-4.66,3.78-8.44,8.44-8.44s8.44,3.78,8.44,8.44v17.21c.04,4.63-3.78,8.44-8.44,8.44ZM108.49,49.6c-2.79,0-5.05,2.26-5.05,5.05v17.21c0,2.79,2.26,5.05,5.05,5.05s5.05-2.26,5.05-5.05v-17.21c.04-2.76-2.26-5.05-5.05-5.05Z"/>
              <path class="cls-5" d="M116.4,99.21c-.95,0-1.7-.74-1.7-1.7,0-6.32,1.84-11.2,5.48-14.49,4.06-3.67,9.22-4.35,11.94-4.45v-8.66c0-.95.74-1.7,1.7-1.7s1.7.74,1.7,1.7v10.42c0,.49-.21.92-.57,1.27-.35.32-.81.49-1.31.42-.07,0-6.71-.57-11.24,3.57-2.9,2.61-4.35,6.64-4.35,11.94.04.92-.74,1.66-1.66,1.66Z"/>
              <path class="cls-5" d="M148.2,68.22c-.95,0-1.7.74-1.7,1.7v2.9c0,10.81-3.96,21.16-11.17,29.22-1.84,2.05-3.25,4.38-4.24,6.96-.49,1.38-.88,2.76-1.13,4.17-.04.19-.03.38,0,.56v41.56c0,2.79-2.66,5.05-5.45,5.05h-29.7c-2.79-.01-5.45-2.27-5.45-5.06v-41.98h-.03c0-.06,0-.11,0-.16-.71-3.14-2.05-6.01-3.96-8.59l-1.84-2.44c-2.47-3.29-3.82-7.38-3.82-11.48v-10.25c0-.95-.74-1.7-1.7-1.7s-1.7.74-1.7,1.7v10.25c0,4.84,1.63,9.61,4.52,13.5l1.84,2.44c1.57,2.08,2.67,4.47,3.28,7.02v41.73c0,4.66,4.18,8.44,8.84,8.44h29.7c4.66.01,8.84-3.77,8.84-8.43v-41.88c.19-1.09.5-2.18.88-3.21.81-2.19,2.05-4.2,3.6-5.94,7.77-8.66,12.05-19.86,12.05-31.48v-2.9c0-.95-.74-1.7-1.7-1.7Z"/>
            </g>
          </g>
          <g>
            <circle class="cls-4" cx="46.51" cy="66.3" r="5.41"/>
            <circle class="cls-4" cx="176.4" cy="66.3" r="5.41"/>
            <path class="cls-2" d="M46.51,152.89c11.96,0,21.65-9.69,21.65-21.65H24.86c0,11.96,9.69,21.65,21.65,21.65Z"/>
            <path class="cls-2" d="M176.4,152.89c11.96,0,21.65-9.69,21.65-21.65h-43.3c0,11.96,9.69,21.65,21.65,21.65Z"/>
            <polygon class="cls-2" points="46.51 66.3 24.86 131.24 68.16 131.24 46.51 66.3"/>
            <polygon class="cls-2" points="176.4 66.3 154.75 131.24 198.05 131.24 176.4 66.3"/>
            <g>
              <path class="cls-4" d="M69.58,60.89h-13.04c-2.54,0-4.62,2.08-4.62,4.62v.81c0,2.54,2.08,4.62,4.62,4.62h13.04v-10.05Z"/>
              <path class="cls-4" d="M166.36,60.89h-13.03v10.05h13.03c2.54,0,4.62-2.08,4.62-4.62v-.81c0-2.54-2.08-4.62-4.62-4.62Z"/>
            </g>
          </g>
        </g>
      </g>
      <line class="cls-3" x1="283.77" y1="160.34" x2="850.1" y2="160.34"/>
    </g>
  </g>
</svg>