<?xml version="1.0" encoding="UTF-8"?>
<svg id="Layer_2" data-name="Layer 2" xmlns="http://www.w3.org/2000/svg" viewBox="0 0 247.74 72.54">
  <defs>
    <style>
      .cls-1, .cls-2 {
        fill: #fff;
      }

      .cls-1, .cls-3 {
        stroke-linecap: round;
        stroke-linejoin: round;
      }

      .cls-1, .cls-3, .cls-4 {
        stroke: #fff;
      }

      .cls-3, .cls-4 {
        fill: none;
      }

      .cls-4 {
        stroke-miterlimit: 10;
        stroke-width: 2px;
      }
    </style>
  </defs>
  <g id="SLIDE_5" data-name="SLIDE 5">
    <g>
      <g>
        <path class="cls-2" d="M90.15,30.5h-6.25V.17h6.25v30.33Z"/>
        <path class="cls-2" d="M101.19,7.96l.19,2.52c1.6-1.96,3.76-2.94,6.48-2.94,2.9,0,4.89,1.15,5.98,3.44,1.58-2.29,3.84-3.44,6.77-3.44,2.44,0,4.26.71,5.46,2.13s1.79,3.57,1.79,6.43v14.39h-6.04v-14.37c0-1.28-.25-2.21-.75-2.8-.5-.59-1.38-.88-2.64-.88-1.81,0-3.06.86-3.75,2.58l.02,15.48h-6.02v-14.35c0-1.3-.26-2.25-.77-2.83s-1.39-.88-2.62-.88c-1.71,0-2.94.71-3.71,2.12v15.93h-6.02V7.96h5.65Z"/>
        <path class="cls-2" d="M152.76,19.44c0,3.47-.79,6.25-2.36,8.34s-3.7,3.13-6.38,3.13c-2.28,0-4.12-.79-5.52-2.38v10.62h-6.02V7.96h5.58l.21,2.21c1.46-1.75,3.36-2.62,5.71-2.62,2.78,0,4.94,1.03,6.48,3.08,1.54,2.06,2.31,4.89,2.31,8.5v.31ZM146.74,19c0-2.1-.37-3.71-1.11-4.85-.74-1.14-1.82-1.71-3.24-1.71-1.89,0-3.19.72-3.89,2.17v9.23c.74,1.49,2.05,2.23,3.94,2.23,2.87,0,4.31-2.35,4.31-7.06Z"/>
        <path class="cls-2" d="M169.99,28.21c-1.49,1.8-3.54,2.71-6.17,2.71-2.42,0-4.26-.69-5.53-2.08-1.27-1.39-1.92-3.42-1.95-6.1V7.96h6.02v14.58c0,2.35,1.07,3.52,3.21,3.52s3.44-.71,4.21-2.13V7.96h6.04v22.54h-5.67l-.17-2.29Z"/>
        <path class="cls-2" d="M179.48,19.06c0-3.46.82-6.24,2.47-8.35,1.65-2.11,3.86-3.17,6.66-3.17,2.47,0,4.39.85,5.77,2.54l.25-2.12h5.46v21.79c0,1.97-.45,3.69-1.34,5.14s-2.16,2.57-3.78,3.33-3.53,1.15-5.71,1.15c-1.65,0-3.26-.33-4.83-.99-1.57-.66-2.76-1.51-3.56-2.55l2.67-3.67c1.5,1.68,3.32,2.52,5.46,2.52,1.6,0,2.84-.43,3.73-1.28.89-.85,1.33-2.07,1.33-3.63v-1.21c-1.39,1.57-3.21,2.35-5.48,2.35-2.71,0-4.9-1.06-6.57-3.18-1.67-2.12-2.51-4.93-2.51-8.43v-.25ZM185.5,19.51c0,2.04.41,3.65,1.23,4.81s1.94,1.74,3.37,1.74c1.83,0,3.15-.69,3.94-2.07v-9.49c-.81-1.38-2.1-2.07-3.9-2.07-1.44,0-2.58.59-3.41,1.77-.83,1.18-1.24,2.95-1.24,5.3Z"/>
        <path class="cls-2" d="M210.25,7.96l.19,2.6c1.61-2.01,3.77-3.02,6.48-3.02,2.39,0,4.17.7,5.33,2.1,1.17,1.4,1.76,3.5,1.79,6.29v14.56h-6.02v-14.41c0-1.28-.28-2.2-.83-2.78-.55-.58-1.48-.86-2.77-.86-1.69,0-2.96.72-3.81,2.17v15.89h-6.02V7.96h5.67Z"/>
        <path class="cls-2" d="M241.66,30.5c-.28-.54-.48-1.21-.6-2.02-1.46,1.62-3.35,2.44-5.69,2.44-2.21,0-4.04-.64-5.49-1.92-1.45-1.28-2.18-2.89-2.18-4.83,0-2.39.89-4.22,2.66-5.5,1.77-1.28,4.33-1.92,7.67-1.94h2.77v-1.29c0-1.04-.27-1.87-.8-2.5-.54-.62-1.38-.94-2.53-.94-1.01,0-1.81.24-2.39.73-.58.49-.86,1.15-.86,2h-6.02c0-1.3.4-2.51,1.21-3.62s1.94-1.98,3.42-2.61,3.12-.95,4.96-.95c2.78,0,4.98.7,6.61,2.09s2.45,3.36,2.45,5.88v9.77c.01,2.14.31,3.76.9,4.85v.35h-6.08ZM236.68,26.31c.89,0,1.71-.2,2.46-.59s1.3-.93,1.67-1.59v-3.87h-2.25c-3.01,0-4.62,1.04-4.81,3.12l-.02.35c0,.75.26,1.37.79,1.85.53.49,1.25.73,2.17.73Z"/>
      </g>
      <g>
        <path class="cls-2" d="M88.65,72.1h-3.52v-17.07h3.52v17.07Z"/>
        <path class="cls-2" d="M105.79,72.1h-3.52l-6.85-11.23v11.23h-3.52v-17.07h3.52l6.86,11.25v-11.25h3.51v17.07Z"/>
        <path class="cls-2" d="M119.13,64.7h-6.75v4.57h7.92v2.83h-11.44v-17.07h11.42v2.85h-7.9v4.07h6.75v2.75Z"/>
      </g>
      <line class="cls-4" x1="82.73" y1="46.81" x2="247.74" y2="46.81"/>
      <g>
        <path class="cls-2" d="M62.62,7.16c-15.85-.43-25.69-5.06-28.92-6.85-.74-.41-1.63-.41-2.37,0-3.24,1.79-13.07,6.42-28.92,6.85-1.34.04-2.41,1.17-2.41,2.52v17.46c0,17.3,9.4,33.2,24.46,41.4l6.71,3.65c.84.46,1.85.46,2.69,0l6.71-3.65c15.07-8.2,24.46-24.1,24.46-41.4V9.68c0-1.36-1.07-2.49-2.41-2.52ZM61.82,26.56c0,16.5-8.92,31.59-23.27,39.41l-4.76,2.59c-.4.22-.83.32-1.27.32s-.88-.11-1.27-.32l-4.76-2.59C12.13,58.15,3.22,43.05,3.22,26.56v-14.82c0-.7.55-1.27,1.25-1.32,13.5-.92,22.77-4.5,27.47-6.79.19-.09.38-.14.58-.14s.39.05.58.14c4.69,2.29,13.97,5.87,27.47,6.79.7.05,1.25.62,1.25,1.32v14.82Z"/>
        <g>
          <g id="_9156_-_For" data-name="9156 - For">
            <g>
              <path class="cls-2" d="M23.75,23.93c-1.36,0-2.46-1.1-2.46-2.46v-3.7c0-1.36,1.1-2.46,2.46-2.46s2.46,1.1,2.46,2.46v3.7c.01,1.35-1.1,2.46-2.46,2.46ZM23.75,16.29c-.81,0-1.47.66-1.47,1.47v3.7c0,.81.66,1.47,1.47,1.47s1.47-.66,1.47-1.47v-3.7c.01-.81-.66-1.47-1.47-1.47Z"/>
              <path class="cls-2" d="M27.7,23.93c-1.36,0-2.46-1.1-2.46-2.46v-4.44c0-1.36,1.1-2.46,2.46-2.46s2.46,1.1,2.46,2.46v4.44c.01,1.35-1.1,2.46-2.46,2.46ZM27.7,15.54c-.81,0-1.47.66-1.47,1.47v4.44c0,.81.66,1.47,1.47,1.47s1.47-.66,1.47-1.47v-4.44c.01-.81-.66-1.47-1.47-1.47Z"/>
              <path class="cls-2" d="M35.6,22.2h-.08c-1.32-.04-2.39-1.18-2.39-2.52v-4.34c0-1.37,1.09-2.49,2.43-2.52.67-.01,1.31.25,1.78.72.46.46.72,1.09.72,1.74v1.27c0,.28-.22.49-.49.49s-.49-.22-.49-.49v-1.27c0-.39-.15-.76-.43-1.04s-.67-.43-1.06-.43c-.8.01-1.45.7-1.45,1.53v4.35c0,.81.64,1.49,1.43,1.53.69.02,1.3-.42,1.47-1.09.07-.27.34-.42.61-.35s.42.34.35.61c-.3,1.08-1.28,1.81-2.39,1.81Z"/>
              <path class="cls-2" d="M43.25,20.89c-.28,0-.49-.22-.49-.49v-2.19c0-.7-.57-1.27-1.27-1.27h-3.26c-.18,0-.34.03-.49.08-.21.07-.4.2-.56.35-.28.28-.43.65-.43,1.04,0,.61.37,1.15.94,1.37.18.07.36.1.55.1h.81c.28,0,.49.22.49.49s-.22.49-.49.49h-.81c-.32,0-.62-.06-.91-.18-.95-.37-1.56-1.28-1.56-2.29,0-.66.26-1.28.72-1.74.26-.26.58-.46.93-.58.26-.09.54-.14.82-.14h3.25c1.25,0,2.26,1.01,2.26,2.26v2.19c0,.27-.22.49-.49.49Z"/>
              <path class="cls-2" d="M31.65,23.44c-1.36,0-2.46-1.1-2.46-2.46v-5.02c0-1.36,1.1-2.46,2.46-2.46s2.46,1.1,2.46,2.46v5.02c.01,1.35-1.1,2.46-2.46,2.46ZM31.65,14.47c-.81,0-1.47.66-1.47,1.47v5.02c0,.81.66,1.47,1.47,1.47s1.47-.66,1.47-1.47v-5.02c.01-.8-.66-1.47-1.47-1.47Z"/>
              <path class="cls-2" d="M33.96,28.94c-.28,0-.49-.22-.49-.49,0-1.85.54-3.27,1.6-4.23,1.19-1.07,2.69-1.27,3.48-1.3v-2.53c0-.28.22-.49.49-.49s.49.22.49.49v3.04c0,.14-.06.27-.16.37-.1.09-.24.14-.38.12-.02,0-1.96-.16-3.28,1.04-.85.76-1.27,1.94-1.27,3.48.01.27-.22.48-.48.48Z"/>
              <path class="cls-2" d="M43.24,19.9c-.28,0-.49.22-.49.49v.85c0,3.15-1.15,6.17-3.26,8.52-.54.6-.95,1.28-1.24,2.03-.14.4-.26.8-.33,1.22-.01.06,0,.11,0,.16v12.12c0,.81-.78,1.47-1.59,1.47h-8.67c-.81,0-1.59-.66-1.59-1.48v-12.25h0s0-.03,0-.05c-.21-.92-.6-1.75-1.15-2.5l-.54-.71c-.72-.96-1.11-2.15-1.11-3.35v-2.99c0-.28-.22-.49-.49-.49s-.49.22-.49.49v2.99c0,1.41.47,2.8,1.32,3.94l.54.71c.46.61.78,1.3.96,2.05v12.17c0,1.36,1.22,2.46,2.58,2.46h8.67c1.36,0,2.58-1.1,2.58-2.46v-12.22c.06-.32.15-.64.26-.94.24-.64.6-1.23,1.05-1.73,2.27-2.53,3.52-5.79,3.52-9.18v-.85c0-.28-.22-.49-.49-.49Z"/>
            </g>
          </g>
          <g>
            <circle class="cls-1" cx="13.57" cy="19.34" r="1.58"/>
            <circle class="cls-1" cx="51.46" cy="19.34" r="1.58"/>
            <path class="cls-3" d="M13.57,44.61c3.49,0,6.32-2.83,6.32-6.32H7.25c0,3.49,2.83,6.32,6.32,6.32Z"/>
            <path class="cls-3" d="M51.46,44.61c3.49,0,6.32-2.83,6.32-6.32h-12.63c0,3.49,2.83,6.32,6.32,6.32Z"/>
            <polygon class="cls-3" points="13.57 19.34 7.25 38.29 19.88 38.29 13.57 19.34"/>
            <polygon class="cls-3" points="51.46 19.34 45.15 38.29 57.78 38.29 51.46 19.34"/>
            <g>
              <path class="cls-1" d="M20.3,17.76h-3.81c-.74,0-1.35.61-1.35,1.35v.23c0,.74.61,1.35,1.35,1.35h3.81v-2.93Z"/>
              <path class="cls-1" d="M48.54,17.76h-3.8v2.93h3.8c.74,0,1.35-.61,1.35-1.35v-.23c0-.74-.61-1.35-1.35-1.35Z"/>
            </g>
          </g>
        </g>
      </g>
    </g>
  </g>
</svg>