<svg xmlns="http://www.w3.org/2000/svg" width="109.93" height="109.93" viewBox="0 0 109.93 109.93">
  <g id="Plazos" transform="translate(54.965 54.965)">
    <g id="Plazos-2" data-name="Plazos" transform="translate(-54.965 -54.965)">
      <g id="OBJECTS">
        <g id="Grupo_45378" data-name="Grupo 45378">
          <g id="Grupo_45360" data-name="Grupo 45360">
            <path id="Trazado_17550" data-name="Trazado 17550" d="M90.31,70.98a19.33,19.33,0,1,0,19.33,19.33A19.35,19.35,0,0,0,90.31,70.98Zm1.66,35.26v-2.68a1.66,1.66,0,0,0-3.32,0v2.68A16.039,16.039,0,0,1,74.38,91.97h2.67a1.66,1.66,0,0,0,0-3.32H74.38a16.016,16.016,0,0,1,31.86,0h-2.67a1.66,1.66,0,0,0,0,3.32h2.67a16.03,16.03,0,0,1-14.27,14.27Z" fill="#307479"/>
            <path id="Trazado_17551" data-name="Trazado 17551" d="M90.31,109.92a19.61,19.61,0,1,1,19.61-19.61A19.638,19.638,0,0,1,90.31,109.92Zm0-38.66a19.05,19.05,0,1,0,19.05,19.05A19.077,19.077,0,0,0,90.31,71.26Zm1.38,35.3v-2.99a1.37,1.37,0,1,0-2.74,0v2.99l-.31-.03A16.364,16.364,0,0,1,74.11,92l-.03-.31h2.99a1.375,1.375,0,0,0,0-2.75H74.08l.03-.31a16.3,16.3,0,0,1,32.42,0l.03.31h-2.99a1.372,1.372,0,0,0-1.37,1.37,1.387,1.387,0,0,0,1.37,1.38h2.99l-.03.31A16.364,16.364,0,0,1,92,106.53Zm-1.38-4.94a1.942,1.942,0,0,1,1.94,1.94v2.36a15.792,15.792,0,0,0,13.67-13.68h-2.36a1.94,1.94,0,0,1,0-3.88h2.36a15.729,15.729,0,0,0-31.22,0h2.36a1.94,1.94,0,1,1,0,3.88H74.7a15.792,15.792,0,0,0,13.67,13.68v-2.36A1.942,1.942,0,0,1,90.31,101.62Z" fill="#307479"/>
          </g>
          <g id="Grupo_45361" data-name="Grupo 45361">
            <path id="Trazado_17552" data-name="Trazado 17552" d="M95.36,88.65h-3.4V80.54a1.66,1.66,0,1,0-3.32,0v9.77a1.662,1.662,0,0,0,1.66,1.66h5.05a1.66,1.66,0,1,0,0-3.32Z" fill="#307479"/>
            <path id="Trazado_17553" data-name="Trazado 17553" d="M95.36,92.25H90.31a1.942,1.942,0,0,1-1.94-1.94V80.54a1.94,1.94,0,1,1,3.88,0v7.83h3.11a1.94,1.94,0,1,1,0,3.88ZM90.31,79.16a1.374,1.374,0,0,0-1.37,1.38v9.77a1.381,1.381,0,0,0,1.37,1.38h5.05a1.375,1.375,0,0,0,0-2.75H91.68V80.55a1.381,1.381,0,0,0-1.37-1.38Z" fill="#307479"/>
          </g>
          <g id="Grupo_45362" data-name="Grupo 45362">
            <path id="Trazado_17554" data-name="Trazado 17554" d="M25.51,68.75H14.1a1.66,1.66,0,1,0,0,3.32H25.51a1.66,1.66,0,1,0,0-3.32Z" fill="#307479"/>
            <path id="Trazado_17555" data-name="Trazado 17555" d="M25.51,72.35H14.1a1.94,1.94,0,1,1,0-3.88H25.51a1.94,1.94,0,1,1,0,3.88ZM14.1,69.03a1.372,1.372,0,0,0-1.37,1.37,1.387,1.387,0,0,0,1.37,1.38H25.51a1.375,1.375,0,0,0,0-2.75Z" fill="#307479"/>
          </g>
          <g id="Grupo_45363" data-name="Grupo 45363">
            <path id="Trazado_17556" data-name="Trazado 17556" d="M48.78,68.75H37.36a1.66,1.66,0,1,0,0,3.32H48.78a1.66,1.66,0,1,0,0-3.32Z" fill="#307479"/>
            <path id="Trazado_17557" data-name="Trazado 17557" d="M48.78,72.35H37.36a1.94,1.94,0,1,1,0-3.88H48.78a1.94,1.94,0,1,1,0,3.88ZM37.36,69.03a1.372,1.372,0,0,0-1.37,1.37,1.387,1.387,0,0,0,1.37,1.38H48.78a1.375,1.375,0,0,0,0-2.75Z" fill="#307479"/>
          </g>
          <g id="Grupo_45364" data-name="Grupo 45364">
            <path id="Trazado_17558" data-name="Trazado 17558" d="M72.31,68.75H60.89a1.66,1.66,0,1,0,0,3.32H72.31a1.66,1.66,0,1,0,0-3.32Z" fill="#307479"/>
            <path id="Trazado_17559" data-name="Trazado 17559" d="M72.31,72.35H60.9a1.94,1.94,0,1,1,0-3.88H72.31a1.94,1.94,0,1,1,0,3.88ZM60.89,69.03a1.372,1.372,0,0,0-1.37,1.37,1.387,1.387,0,0,0,1.37,1.38H72.3a1.375,1.375,0,0,0,0-2.75Z" fill="#307479"/>
          </g>
          <g id="Grupo_45365" data-name="Grupo 45365">
            <path id="Trazado_17560" data-name="Trazado 17560" d="M25.51,82.01H14.1a1.66,1.66,0,1,0,0,3.32H25.51a1.66,1.66,0,1,0,0-3.32Z" fill="#307479"/>
            <path id="Trazado_17561" data-name="Trazado 17561" d="M25.51,85.6H14.1a1.94,1.94,0,1,1,0-3.88H25.51a1.94,1.94,0,1,1,0,3.88ZM14.1,82.29a1.38,1.38,0,0,0,0,2.76H25.51a1.38,1.38,0,0,0,0-2.76Z" fill="#307479"/>
          </g>
          <g id="Grupo_45366" data-name="Grupo 45366">
            <path id="Trazado_17562" data-name="Trazado 17562" d="M48.78,82.01H37.36a1.66,1.66,0,1,0,0,3.32H48.78a1.66,1.66,0,1,0,0-3.32Z" fill="#307479"/>
            <path id="Trazado_17563" data-name="Trazado 17563" d="M48.78,85.6H37.36a1.94,1.94,0,1,1,0-3.88H48.78a1.94,1.94,0,1,1,0,3.88ZM37.36,82.29a1.38,1.38,0,0,0,0,2.76H48.78a1.38,1.38,0,0,0,0-2.76Z" fill="#307479"/>
          </g>
          <g id="Grupo_45367" data-name="Grupo 45367">
            <path id="Trazado_17564" data-name="Trazado 17564" d="M95.84,28.98H84.43a1.66,1.66,0,1,0,0,3.32H95.84a1.66,1.66,0,1,0,0-3.32Z" fill="#307479"/>
            <path id="Trazado_17565" data-name="Trazado 17565" d="M95.84,32.57H84.43a1.94,1.94,0,1,1,0-3.88H95.84a1.94,1.94,0,1,1,0,3.88ZM84.42,29.26a1.38,1.38,0,0,0,0,2.76H95.83a1.38,1.38,0,0,0,0-2.76Z" fill="#307479"/>
          </g>
          <g id="Grupo_45368" data-name="Grupo 45368">
            <path id="Trazado_17566" data-name="Trazado 17566" d="M72.31,28.98H60.89a1.66,1.66,0,0,0,0,3.32H72.31a1.66,1.66,0,1,0,0-3.32Z" fill="#307479"/>
            <path id="Trazado_17567" data-name="Trazado 17567" d="M72.31,32.57H60.9a1.94,1.94,0,1,1,0-3.88H72.31a1.94,1.94,0,1,1,0,3.88ZM60.89,29.26a1.38,1.38,0,0,0,0,2.76H72.3a1.38,1.38,0,0,0,0-2.76Z" fill="#307479"/>
          </g>
          <g id="Grupo_45369" data-name="Grupo 45369">
            <path id="Trazado_17568" data-name="Trazado 17568" d="M25.51,42.24H14.1a1.66,1.66,0,1,0,0,3.32H25.51a1.66,1.66,0,0,0,0-3.32Z" fill="#307479"/>
            <path id="Trazado_17569" data-name="Trazado 17569" d="M25.51,45.83H14.1a1.94,1.94,0,1,1,0-3.88H25.51a1.94,1.94,0,1,1,0,3.88ZM14.1,42.52a1.375,1.375,0,0,0,0,2.75H25.51a1.372,1.372,0,0,0,1.37-1.37,1.387,1.387,0,0,0-1.37-1.38Z" fill="#307479"/>
          </g>
          <g id="Grupo_45370" data-name="Grupo 45370">
            <path id="Trazado_17570" data-name="Trazado 17570" d="M48.78,42.24H37.36a1.66,1.66,0,0,0,0,3.32H48.78a1.66,1.66,0,1,0,0-3.32Z" fill="#307479"/>
            <path id="Trazado_17571" data-name="Trazado 17571" d="M48.78,45.83H37.36a1.94,1.94,0,1,1,0-3.88H48.78a1.94,1.94,0,1,1,0,3.88ZM37.36,42.52a1.375,1.375,0,0,0,0,2.75H48.78a1.372,1.372,0,0,0,1.37-1.37,1.387,1.387,0,0,0-1.37-1.38Z" fill="#307479"/>
          </g>
          <g id="Grupo_45371" data-name="Grupo 45371">
            <path id="Trazado_17572" data-name="Trazado 17572" d="M95.84,42.24H84.43a1.66,1.66,0,1,0,0,3.32H95.84a1.66,1.66,0,1,0,0-3.32Z" fill="#307479"/>
            <path id="Trazado_17573" data-name="Trazado 17573" d="M95.84,45.83H84.43a1.94,1.94,0,1,1,0-3.88H95.84a1.94,1.94,0,1,1,0,3.88ZM84.42,42.52a1.375,1.375,0,0,0,0,2.75H95.83A1.372,1.372,0,0,0,97.2,43.9a1.387,1.387,0,0,0-1.37-1.38Z" fill="#307479"/>
          </g>
          <g id="Grupo_45372" data-name="Grupo 45372">
            <path id="Trazado_17574" data-name="Trazado 17574" d="M72.31,42.24H60.89a1.66,1.66,0,1,0,0,3.32H72.31a1.66,1.66,0,1,0,0-3.32Z" fill="#307479"/>
            <path id="Trazado_17575" data-name="Trazado 17575" d="M72.31,45.83H60.9a1.94,1.94,0,1,1,0-3.88H72.31a1.94,1.94,0,1,1,0,3.88ZM60.89,42.52a1.375,1.375,0,0,0,0,2.75H72.3a1.372,1.372,0,0,0,1.37-1.37,1.387,1.387,0,0,0-1.37-1.38Z" fill="#307479"/>
          </g>
          <g id="Grupo_45373" data-name="Grupo 45373">
            <path id="Trazado_17576" data-name="Trazado 17576" d="M25.51,55.49H14.1a1.66,1.66,0,1,0,0,3.32H25.51a1.66,1.66,0,0,0,0-3.32Z" fill="#307479"/>
            <path id="Trazado_17577" data-name="Trazado 17577" d="M25.51,59.09H14.1a1.94,1.94,0,1,1,0-3.88H25.51a1.94,1.94,0,1,1,0,3.88ZM14.1,55.77a1.38,1.38,0,0,0,0,2.76H25.51a1.38,1.38,0,0,0,0-2.76Z" fill="#307479"/>
          </g>
          <g id="Grupo_45374" data-name="Grupo 45374">
            <path id="Trazado_17578" data-name="Trazado 17578" d="M48.78,55.49H37.36a1.66,1.66,0,1,0,0,3.32H48.78a1.66,1.66,0,1,0,0-3.32Z" fill="#307479"/>
            <path id="Trazado_17579" data-name="Trazado 17579" d="M48.78,59.09H37.36a1.94,1.94,0,1,1,0-3.88H48.78a1.94,1.94,0,1,1,0,3.88ZM37.36,55.77a1.38,1.38,0,0,0,0,2.76H48.78a1.38,1.38,0,0,0,0-2.76Z" fill="#307479"/>
          </g>
          <g id="Grupo_45375" data-name="Grupo 45375">
            <path id="Trazado_17580" data-name="Trazado 17580" d="M95.84,55.49H84.43a1.66,1.66,0,1,0,0,3.32H95.84a1.66,1.66,0,1,0,0-3.32Z" fill="#307479"/>
            <path id="Trazado_17581" data-name="Trazado 17581" d="M95.84,59.09H84.43a1.94,1.94,0,1,1,0-3.88H95.84a1.94,1.94,0,1,1,0,3.88ZM84.42,55.77a1.38,1.38,0,0,0,0,2.76H95.83a1.38,1.38,0,0,0,0-2.76Z" fill="#307479"/>
          </g>
          <g id="Grupo_45376" data-name="Grupo 45376">
            <path id="Trazado_17582" data-name="Trazado 17582" d="M72.31,55.49H60.89a1.66,1.66,0,0,0,0,3.32H72.31a1.66,1.66,0,1,0,0-3.32Z" fill="#307479"/>
            <path id="Trazado_17583" data-name="Trazado 17583" d="M72.31,59.09H60.9a1.94,1.94,0,1,1,0-3.88H72.31a1.94,1.94,0,1,1,0,3.88ZM60.89,55.77a1.38,1.38,0,0,0,0,2.76H72.3a1.38,1.38,0,0,0,0-2.76Z" fill="#307479"/>
          </g>
          <g id="Grupo_45377" data-name="Grupo 45377">
            <path id="Trazado_17584" data-name="Trazado 17584" d="M70.43,106.32H8.57a4.976,4.976,0,0,1-4.97-4.97V96.89a8.219,8.219,0,0,0,4.97,1.7H65a1.66,1.66,0,1,0,0-3.32H8.57A4.976,4.976,0,0,1,3.6,90.3V19.06H106.33V70.42a1.66,1.66,0,1,0,3.32,0V12.99a8.3,8.3,0,0,0-8.28-8.29H96.41V1.94a1.66,1.66,0,0,0-3.32,0V4.7H76.52V1.94a1.66,1.66,0,1,0-3.32,0V4.7H56.63V1.94a1.66,1.66,0,1,0-3.32,0V4.7H36.74V1.94a1.66,1.66,0,0,0-3.32,0V4.7H16.85V1.94a1.66,1.66,0,0,0-3.32,0V4.7H8.56A8.3,8.3,0,0,0,.28,12.99v88.37a8.3,8.3,0,0,0,8.28,8.29H70.42a1.66,1.66,0,1,0,0-3.32ZM3.6,12.99A4.976,4.976,0,0,1,8.57,8.02h4.97v.55a1.66,1.66,0,0,0,3.32,0V8.02H33.43v.55a1.66,1.66,0,1,0,3.32,0V8.02H53.32v.55a1.66,1.66,0,1,0,3.32,0V8.02H73.21v.55a1.66,1.66,0,1,0,3.32,0V8.02H93.1v.55a1.66,1.66,0,1,0,3.32,0V8.02h4.96a4.976,4.976,0,0,1,4.97,4.97v2.76H3.6Z" fill="#307479"/>
            <path id="Trazado_17585" data-name="Trazado 17585" d="M70.43,109.92H8.57A8.58,8.58,0,0,1,0,101.35V12.99A8.574,8.574,0,0,1,8.57,4.42h4.69V1.94a1.94,1.94,0,1,1,3.88,0V4.42H33.15V1.94a1.94,1.94,0,1,1,3.88,0V4.42H53.04V1.94a1.94,1.94,0,1,1,3.88,0V4.42h16V1.94a1.94,1.94,0,0,1,3.88,0V4.42h16V1.94a1.94,1.94,0,1,1,3.88,0V4.42h4.68a8.58,8.58,0,0,1,8.57,8.57V70.42a1.94,1.94,0,1,1-3.88,0V19.34H3.88V90.31A4.69,4.69,0,0,0,8.57,95H65a1.94,1.94,0,1,1,0,3.88H8.57a8.426,8.426,0,0,1-4.69-1.43v3.91a4.69,4.69,0,0,0,4.69,4.69H70.43a1.94,1.94,0,1,1,0,3.88ZM8.57,4.98a8.013,8.013,0,0,0-8,8.01v88.37a8.011,8.011,0,0,0,8,8H70.43a1.38,1.38,0,0,0,0-2.76H8.57a5.256,5.256,0,0,1-5.25-5.25V96.32l.45.34a7.937,7.937,0,0,0,4.8,1.64H65a1.372,1.372,0,0,0,1.37-1.37A1.387,1.387,0,0,0,65,95.55H8.57A5.256,5.256,0,0,1,3.32,90.3V18.78h103.3V70.42a1.37,1.37,0,1,0,2.74,0V12.99a8.011,8.011,0,0,0-8-8H96.11V1.94a1.37,1.37,0,1,0-2.74,0V4.98H76.23V1.94a1.37,1.37,0,1,0-2.74,0V4.98H56.35V1.94a1.37,1.37,0,1,0-2.74,0V4.98H36.47V1.94a1.37,1.37,0,1,0-2.74,0V4.98H16.59V1.94a1.37,1.37,0,1,0-2.74,0V4.98H8.57Zm98.04,11.05H3.31V12.99A5.256,5.256,0,0,1,8.56,7.74h5.26v.83a1.37,1.37,0,1,0,2.74,0V7.74H33.7v.83a1.37,1.37,0,1,0,2.74,0V7.74H53.58v.83a1.37,1.37,0,1,0,2.74,0V7.74H73.46v.83a1.37,1.37,0,1,0,2.74,0V7.74H93.34v.83a1.37,1.37,0,1,0,2.74,0V7.74h5.25a5.256,5.256,0,0,1,5.25,5.25v3.04ZM3.88,15.46H106.04V12.98a4.69,4.69,0,0,0-4.69-4.69H96.67v.27a1.94,1.94,0,1,1-3.88,0V8.29h-16v.27a1.94,1.94,0,1,1-3.88,0V8.29h-16v.27a1.94,1.94,0,0,1-3.88,0V8.29H37.02v.27a1.94,1.94,0,0,1-3.88,0V8.29H17.13v.27a1.94,1.94,0,0,1-3.88,0V8.29H8.56a4.7,4.7,0,0,0-4.69,4.69v2.48Z" fill="#307479"/>
          </g>
        </g>
      </g>
    </g>
  </g>
</svg>
