<svg xmlns="http://www.w3.org/2000/svg" width="108.93" height="109.92" viewBox="0 0 108.93 109.92">
  <g id="Ventajas_digitalización" data-name="Ventajas digitalización" transform="translate(54.465 54.96)">
    <g id="Ventajas_digitalización-2" data-name="Ventajas digitalización" transform="translate(-54.465 -54.96)">
      <g id="OBJECTS">
        <g id="_545_News_Newspaper_Paper_Online_Screen" data-name=" 545 News Newspaper Paper Online Screen">
          <g id="Grupo_45357" data-name="Grupo 45357">
            <path id="Trazado_17523" data-name="Trazado 17523" d="M92.28,95.9a2.43,2.43,0,1,1-2.46,2.43A2.446,2.446,0,0,1,92.28,95.9Z" fill="#307479"/>
            <ellipse id="Elipse_293" data-name="Elipse 293" cx="2.46" cy="2.43" rx="2.46" ry="2.43" transform="translate(82.83 102.82)" fill="#307479"/>
            <path id="Trazado_17524" data-name="Trazado 17524" d="M19.1,98.14a2.43,2.43,0,1,1-2.46,2.43A2.446,2.446,0,0,1,19.1,98.14Z" fill="#307479"/>
            <path id="Trazado_17525" data-name="Trazado 17525" d="M7.19,95.9A7.147,7.147,0,0,0,0,103a6.991,6.991,0,0,0,7.19,6.92,7.14,7.14,0,0,0,7.19-7.1A6.991,6.991,0,0,0,7.19,95.9Zm0,11.14a4.22,4.22,0,1,1,0-8.44,4.22,4.22,0,1,1,0,8.44Z" fill="#307479"/>
            <path id="Trazado_17526" data-name="Trazado 17526" d="M13.05,14.21a5.86,5.86,0,0,0,5.86-5.79,5.869,5.869,0,0,0-5.86-5.8A5.7,5.7,0,0,0,7.19,8.23,6.019,6.019,0,0,0,13.05,14.21Zm0-9.37a3.657,3.657,0,0,1,3.42,3.38,3.657,3.657,0,0,1-3.42,3.38A3.657,3.657,0,0,1,9.63,8.22,3.657,3.657,0,0,1,13.05,4.84Z" fill="#307479"/>
            <path id="Trazado_17527" data-name="Trazado 17527" d="M94.74,14.21a7.147,7.147,0,0,0,7.19-7.1,7.191,7.191,0,0,0-14.38,0A7.147,7.147,0,0,0,94.74,14.21Zm0-12.04a5.242,5.242,0,0,1,5.18,5.12,5.242,5.242,0,0,1-5.18,5.12c-2.79,0-5.18-2.76-5.18-5.52a4.918,4.918,0,0,1,5.18-4.73Z" fill="#307479"/>
            <path id="Trazado_17528" data-name="Trazado 17528" d="M102.87,98.33a5.8,5.8,0,1,0,5.86,5.8A5.742,5.742,0,0,0,102.87,98.33Zm-.02,8.67a2.88,2.88,0,1,1,2.91-2.88C106.24,105.56,104.79,107,102.85,107Z" fill="#307479"/>
            <path id="Trazado_17529" data-name="Trazado 17529" d="M94.74,81.88a2.43,2.43,0,1,1-2.46,2.43A2.446,2.446,0,0,1,94.74,81.88Z" fill="#307479"/>
            <path id="Trazado_17530" data-name="Trazado 17530" d="M87.56,81.88a2.43,2.43,0,1,1-2.46,2.43A2.446,2.446,0,0,1,87.56,81.88Z" fill="#307479"/>
            <path id="Trazado_17531" data-name="Trazado 17531" d="M80.56,81.88a2.43,2.43,0,1,1-2.46,2.43A2.446,2.446,0,0,1,80.56,81.88Z" fill="#307479"/>
            <path id="Trazado_17532" data-name="Trazado 17532" d="M106.47,11.78a2.43,2.43,0,1,1-2.46,2.43A2.446,2.446,0,0,1,106.47,11.78Z" fill="#307479"/>
            <path id="Trazado_17533" data-name="Trazado 17533" d="M26.1,0a2.446,2.446,0,0,1,2.46,2.43,2.46,2.46,0,0,1-4.92,0A2.446,2.446,0,0,1,26.1,0Z" fill="#307479"/>
            <path id="Trazado_17534" data-name="Trazado 17534" d="M73.37,103h-5.3l-3.21-9.35H97.95a8.425,8.425,0,0,0,8.51-8.41V27.11a8.425,8.425,0,0,0-8.51-8.41H82.82V4.67a2.485,2.485,0,0,0-2.46-2.43H35.54a2.492,2.492,0,0,0-2.46,2.43V18.69H10.97A8.425,8.425,0,0,0,2.46,27.1V85.24a8.425,8.425,0,0,0,8.51,8.41H44.25L41.04,103H35.56a2.43,2.43,0,1,0,0,4.86H73.38a2.492,2.492,0,0,0,2.46-2.43A2.366,2.366,0,0,0,73.38,103ZM25.1,59.63V37.57h8.19V59.82a3.565,3.565,0,0,1-3.59,3.55c-2.08,0-4.59-1.68-4.59-3.74ZM33.28,32.9H23.83a2.492,2.492,0,0,0-2.46,2.43V59.82a8.338,8.338,0,0,0,8.32,8.22H71.48a11.521,11.521,0,0,0,11.54-11.4V28.47H96.93V76.96H12.37V28.47H33.28ZM37.01,6.1H79.29V57.45a6.744,6.744,0,0,1-6.81,6.73H36.06a7.468,7.468,0,0,0,.76-3.55C37.01,49.98,37.01,18.07,37.01,6.1ZM6.19,86.24V26.11a3.769,3.769,0,0,1,3.78-3.74H33.28V25.8H11.91a2.492,2.492,0,0,0-2.46,2.43V77.4a2.485,2.485,0,0,0,2.46,2.43h85.1a2.492,2.492,0,0,0,2.46-2.43V28.23a2.485,2.485,0,0,0-2.46-2.43H82.83V22.37H98.96a3.769,3.769,0,0,1,3.78,3.74V86.25a3.769,3.769,0,0,1-3.78,3.74H9.78a3.733,3.733,0,0,1-3.59-3.74ZM45.95,103l3.21-9.35H59.94L63.15,103H45.95Z" fill="#307479"/>
            <path id="Trazado_17535" data-name="Trazado 17535" d="M46.01,29.47H60.65a2.492,2.492,0,0,0,2.46-2.43V15.02a2.485,2.485,0,0,0-2.46-2.43H46.01a2.492,2.492,0,0,0-2.46,2.43V27.04A2.624,2.624,0,0,0,46.01,29.47Zm.46-14.02H60.38V26.8H46.47Z" fill="#307479"/>
            <rect id="Rectángulo_28949" data-name="Rectángulo 28949" width="14.18" height="2.67" transform="translate(42.74 32.9)" fill="#307479"/>
            <rect id="Rectángulo_28950" data-name="Rectángulo 28950" width="4.73" height="2.67" transform="translate(59.19 32.9)" fill="#307479"/>
            <rect id="Rectángulo_28951" data-name="Rectángulo 28951" width="30.82" height="2.67" transform="translate(42.74 39.82)" fill="#307479"/>
            <rect id="Rectángulo_28952" data-name="Rectángulo 28952" width="16.64" height="2.67" transform="translate(49.73 46.92)" fill="#307479"/>
            <rect id="Rectángulo_28953" data-name="Rectángulo 28953" width="14.18" height="2.67" transform="translate(42.74 53.84)" fill="#307479"/>
          </g>
        </g>
      </g>
    </g>
  </g>
</svg>
