<svg xmlns="http://www.w3.org/2000/svg" width="78.472" height="95.666" viewBox="0 0 78.472 95.666">
  <g id="Amigo_de_la_corte_morado" data-name="Amigo de la corte morado" transform="translate(39.236 48.458)">
    <g id="Layer_1" data-name="Layer 1" transform="translate(-39.236 -47.208)">
      <g id="Grupo_45905" data-name="Grupo 45905" transform="translate(0.023 -1.25)">
        <g id="Grupo_45904" data-name="Grupo 45904">
          <rect id="Rectángulo_29077" data-name="Rectángulo 29077" width="3.7" height="43.79" rx="1.7" transform="translate(61.14 9.21) rotate(90)" fill="none" stroke="#582e73" stroke-linecap="round" stroke-linejoin="round" stroke-width="2.5"/>
          <path id="Trazado_18325" data-name="Trazado 18325" d="M37.25,3.24a1.99,1.99,0,1,1,1.99,1.99A1.989,1.989,0,0,1,37.25,3.24Z" fill="none" stroke="#582e73" stroke-linecap="round" stroke-linejoin="round" stroke-width="2.5"/>
          <circle id="Elipse_365" data-name="Elipse 365" cx="1.99" cy="1.99" r="1.99" transform="translate(13.36 9.21)" fill="none" stroke="#582e73" stroke-linecap="round" stroke-linejoin="round" stroke-width="2.5"/>
          <circle id="Elipse_366" data-name="Elipse 366" cx="1.99" cy="1.99" r="1.99" transform="translate(61.14 9.21)" fill="none" stroke="#582e73" stroke-linecap="round" stroke-linejoin="round" stroke-width="2.5"/>
          <path id="Trazado_18326" data-name="Trazado 18326" d="M15.35,43.05a7.955,7.955,0,0,0,7.96-7.96H7.39A7.955,7.955,0,0,0,15.35,43.05Z" fill="none" stroke="#582e73" stroke-linecap="round" stroke-linejoin="round" stroke-width="2.5"/>
          <path id="Trazado_18327" data-name="Trazado 18327" d="M63.13,43.05a7.955,7.955,0,0,0,7.96-7.96H55.17a7.955,7.955,0,0,0,7.96,7.96Z" fill="none" stroke="#582e73" stroke-linecap="round" stroke-linejoin="round" stroke-width="2.5"/>
          <path id="Trazado_18328" data-name="Trazado 18328" d="M15.35,11.2,7.39,35.09H23.32Z" fill="none" stroke="#582e73" stroke-linecap="round" stroke-linejoin="round" stroke-width="2.5"/>
          <path id="Trazado_18329" data-name="Trazado 18329" d="M63.13,11.2,55.16,35.09H71.09Z" fill="none" stroke="#582e73" stroke-linecap="round" stroke-linejoin="round" stroke-width="2.5"/>
          <rect id="Rectángulo_29078" data-name="Rectángulo 29078" width="7.96" height="14.19" transform="translate(35.26 35.09)" fill="none" stroke="#582e73" stroke-linecap="round" stroke-linejoin="round" stroke-width="2.5"/>
          <rect id="Rectángulo_29079" data-name="Rectángulo 29079" width="3.98" height="3.98" transform="translate(37.25 5.23)" fill="none" stroke="#582e73" stroke-linecap="round" stroke-linejoin="round" stroke-width="2.5"/>
          <rect id="Rectángulo_29080" data-name="Rectángulo 29080" width="3.98" height="21.9" transform="translate(37.25 13.19)" fill="none" stroke="#582e73" stroke-linecap="round" stroke-linejoin="round" stroke-width="2.5"/>
        </g>
        <path id="Trazado_18330" data-name="Trazado 18330" d="M65.19,77.01c.13,3.29-1.13,5.03-4.38,5.92-.65.18-1.03.43-1.12,1.12a5.263,5.263,0,0,1-4.02,4.52,1.8,1.8,0,0,0-1.36,1.37,4.4,4.4,0,0,1-4.74,3.25,2.487,2.487,0,0,0-2.15.87,5.229,5.229,0,0,1-5.6,1.21,3,3,0,0,1-.9-.37c-1.46-1.1-2.67-1.04-4.25.11-1.77,1.3-3.93.58-5.19-1.39a1.651,1.651,0,0,0-1.68-.98,3.5,3.5,0,0,1-3.37-1.93,1.7,1.7,0,0,0-1.71-.96,3.61,3.61,0,0,1-3.25-1.83,1.742,1.742,0,0,0-1.68-1.04,4.058,4.058,0,0,1-3.39-6.2c.55-.9.32-1.41-.55-1.85-.75-.38-1.46-.85-2.2-1.26-1.71-.95-1.73-.96-2.88.72a1.315,1.315,0,0,1-1.81.62C6.29,77.72,3.6,76.57.95,75.33c-1.08-.5-1.16-.88-.73-2.04.24-.67.55-1.32.85-1.96q4.665-9.855,9.35-19.71c.17-.35.34-.7.53-1.04a1.343,1.343,0,0,1,1.96-.66c2.71,1.27,5.41,2.54,8.12,3.81.85.4.77,1.05.58,1.81-.31,1.24-.25,1.31,1,1.3A14,14,0,0,0,27.19,56q2.3-.81,4.59-1.65a9.147,9.147,0,0,1,6.29-.38A1.9,1.9,0,0,0,39.4,54a10.35,10.35,0,0,1,6.88.23c2.36.73,4.71,1.49,7.06,2.23a8.461,8.461,0,0,0,3.08.36c.55-.03.77-.25.62-.89-.41-1.83-.39-1.85,1.21-2.62,2.23-1.07,4.46-2.13,6.7-3.15,1.65-.75,1.94-.68,2.74.94,1.41,2.85,2.75,5.74,4.11,8.61q2.925,6.165,5.84,12.32c.22.47.44.94.64,1.42a1.2,1.2,0,0,1-.61,1.78q-4.185,1.875-8.38,3.71a1.128,1.128,0,0,1-1.6-.65c-.48-.92-.95-1.85-1.43-2.76-.18-.35-.42-.71-.89-.54-.39.14-.3.52-.29.84.01.39.06.78.08,1.17ZM35.72,56.19a2.33,2.33,0,0,0-1.94.07c-1.18.37-2.34.77-3.5,1.19-3.07,1.12-6.13,2.24-9.49,1.64a.864.864,0,0,0-1.09.54Q16.445,66.6,13.12,73.54c-.28.59-.22.94.36,1.26,1.2.65,2.4,1.31,3.56,2.03a2.663,2.663,0,0,0,2.56.34,4.143,4.143,0,0,1,3.4.26c1.5.75,1.51.74,2.37-.69l.21-.33c1.19-1.88,2.69-2.61,4.56-2.21a3.834,3.834,0,0,1,3.18,3.7,1.7,1.7,0,0,0,1.3,1.63,3.25,3.25,0,0,1,2.31,2.88c.06,1.19.63,1.6,1.64,2.03a3.886,3.886,0,0,1,1.99,5.23,8.631,8.631,0,0,1-.6,1.22.632.632,0,0,0,.24.98,6.034,6.034,0,0,0,4,1.26c.72-.1,1.54-.27,1.7-1.06.13-.63-.62-.92-1.08-1.26-.57-.42-1.19-.79-1.78-1.19a11.534,11.534,0,0,1-1.24-.94c-.33-.31-.66-.68-.36-1.19a1.164,1.164,0,0,1,1.46-.66,5.8,5.8,0,0,1,1.19.66c1.14.75,2.25,1.54,3.4,2.28a7.628,7.628,0,0,0,1.72.9,2.223,2.223,0,0,0,2.69-1.02c.42-.79.21-1.31-1.08-2.15-2.12-1.4-4.27-2.73-6.4-4.11a10.371,10.371,0,0,1-1.4-1.04.968.968,0,0,1-.21-1.39,1.05,1.05,0,0,1,1.37-.4,12.177,12.177,0,0,1,1.53.86c2.42,1.53,4.8,3.12,7.26,4.58a3,3,0,0,0,4.04-1.17c.75-1.28.34-2.62-1.19-3.59-2.36-1.5-4.76-2.93-7.13-4.42-1.27-.8-1.58-1.45-1.14-2.12s1.15-.65,2.41.13c2.44,1.5,4.85,3.04,7.29,4.53a9.947,9.947,0,0,0,2.08,1.06,2.558,2.558,0,0,0,3.43-1.95,2.725,2.725,0,0,0-1.18-3.21,72.151,72.151,0,0,0-10.27-5.98,43.958,43.958,0,0,1-6.33-3.44,5.253,5.253,0,0,0-4.28-.75,6.834,6.834,0,0,0-4.52,3.13,11.824,11.824,0,0,1-5.13,4.36,7,7,0,0,1-4.2.49c-2.49-.46-3.27-2.51-1.67-4.46a10.632,10.632,0,0,0,2.44-5.22,5.118,5.118,0,0,1,2.73-3.82c1.31-.73,2.62-1.44,3.91-2.2.53-.31,1.21-.48,1.46-1.18ZM27.23,70.73a7.087,7.087,0,0,0,6.13-2.74c.52-.58.91-1.26,1.38-1.88a8.6,8.6,0,0,1,11.77-2.1,53.6,53.6,0,0,0,5.83,3.14,68.14,68.14,0,0,1,9.16,5.17,8.994,8.994,0,0,0,1.34.78,1.369,1.369,0,0,0,1.62-.28c.4-.41.11-.86-.08-1.26-1.82-3.88-3.65-7.75-5.46-11.64-.28-.6-.61-.97-1.33-.84-2.6.47-5.02-.28-7.44-1.08-1.97-.65-3.95-1.3-5.95-1.86a5.77,5.77,0,0,0-5.35.93,45.1,45.1,0,0,1-6.78,4.21,3.838,3.838,0,0,0-2.2,3,10.973,10.973,0,0,1-2.35,5.27,1.154,1.154,0,0,0-.28,1.16ZM18.87,55.89c.06-.55-.33-.71-.66-.88-1.23-.6-2.46-1.19-3.7-1.77-1.75-.81-1.78-.82-2.6.89Q7.665,63.01,3.45,71.91c-.14.29-.26.59-.39.89a.737.737,0,0,0,.41,1.11c1.61.71,3.21,1.42,4.8,2.16.64.3.98.03,1.24-.51.14-.29.28-.59.42-.88q4.26-8.985,8.51-17.97c.14-.29.29-.58.42-.84ZM75.54,73.15c-.19-.44-.39-.92-.61-1.39q-3.285-6.945-6.58-13.89c-.67-1.41-1.37-2.79-2-4.22-.39-.89-.88-1.17-1.81-.7-1.15.6-2.35,1.1-3.52,1.66-1.65.79-1.64.8-.89,2.39q3.495,7.38,7,14.77c.58,1.23,1.21,2.44,1.77,3.68.29.67.64.89,1.34.56,1.59-.73,3.2-1.42,4.81-2.12.31-.14.57-.31.5-.75ZM24.88,87.38a1.58,1.58,0,0,0,1.55-.97c.62-1.07,1.25-2.12,1.86-3.19.81-1.4,1.66-2.79,2.4-4.23a1.642,1.642,0,0,0-.65-2.33c-.77-.42-1.48-.22-2.18.68a12.7,12.7,0,0,0-.95,1.47c-1.13,1.97-2.3,3.91-3.36,5.92-.74,1.42-.09,2.61,1.33,2.66Zm9.79-4.16a1.466,1.466,0,0,0-.98-1.51,1.541,1.541,0,0,0-2.04.61c-1.04,1.72-2.08,3.45-3.05,5.21-.64,1.17-.44,1.97.46,2.51s1.69.32,2.41-.83c.96-1.54,1.85-3.13,2.76-4.7a2.761,2.761,0,0,0,.44-1.29Zm3.85,5.13a1.642,1.642,0,0,0-.95-1.81,1.449,1.449,0,0,0-1.9.45A19.793,19.793,0,0,0,33.34,91a1.352,1.352,0,0,0,.44,1.72,1.484,1.484,0,0,0,1.97.15,12.712,12.712,0,0,0,2.77-4.51ZM20.99,79.3a1.527,1.527,0,0,0-1.21.54,6.95,6.95,0,0,0-1.53,2.69,1.382,1.382,0,0,0,.86,1.75,1.477,1.477,0,0,0,1.95-.32,7.641,7.641,0,0,0,1.44-2.52,1.586,1.586,0,0,0-1.52-2.14Z" fill="#582e73"/>
      </g>
    </g>
  </g>
</svg>
