<svg xmlns="http://www.w3.org/2000/svg" width="116.706" height="78.56" viewBox="0 0 116.706 78.56">
  <g id="Grupo_45457" data-name="Grupo 45457" transform="translate(0 0)">
    <path id="Trazado_15949" data-name="Trazado 15949" d="M116.507,78.813c-.419.1-.563-.8-.919-.448-.312.312.473.654.45,1a.857.857,0,0,0-.705.861,37.385,37.385,0,0,1-7.2,6.493c-.2.027-.466-.041-.651,0-.06.014-.049.141-.107.154-.611.14-.715-.237-.651.784-.494.318-.966.685-1.48.977l2.731,5.2L92.1,89.958l7.55-11.614,2.42,4.225A32.441,32.441,0,1,0,64.121,30.382c-.108.019-.235-.157-.3-.229-1.406-1.461-2.666-3.134-4.11-4.573a.292.292,0,0,1,0-.4,39.215,39.215,0,0,1,56.8,53.634" transform="translate(-46.539 -15.292)" fill="#582e73"/>
    <path id="Trazado_15950" data-name="Trazado 15950" d="M80.23,48.268a1.072,1.072,0,0,0,.213.136l15.747.02v4.458H80.426C75.887,58,69.3,50.414,75.459,46.978V23.625h2.894l0,22.964c-.044.444.288.464.63.662a1.258,1.258,0,0,0-.627,1.1c-.411-.191-.807-1.348-1.246-.734-.024.132.633.683.542.81a.917.917,0,0,0,.116,1.806.949.949,0,0,0,.98-1.257,1.088,1.088,0,0,0,1.486-.7" transform="translate(-38.973 -10.563)" fill="#582e73"/>
    <path id="Trazado_15951" data-name="Trazado 15951" d="M63.648,29.684c.078.133-.528.9-.649,1.093A33.5,33.5,0,0,0,58.409,41.8l-6.565-1.717A39.686,39.686,0,0,1,58.06,25.993l.16-.074Z" transform="translate(-50.955 -9.261)" fill="#582e73"/>
    <path id="Trazado_15952" data-name="Trazado 15952" d="M58.968,48.59l-6.253,2.98a41.435,41.435,0,0,1-1.408-12.125L58,39.752a38.644,38.644,0,0,0,.967,8.838" transform="translate(-51.277 -1.583)" fill="#582e73"/>
    <path id="Trazado_15953" data-name="Trazado 15953" d="M70.738,67.552a35.486,35.486,0,0,1-9.462-5.2l3.847-5.419a.328.328,0,0,1,.3.028c.48.223,1.389,1.031,1.917,1.367.923.586,1.908,1.163,2.883,1.655.4.2,2.828,1.179,2.913,1.314a.338.338,0,0,1,0,.317Z" transform="translate(-45.602 8.327)" fill="#582e73"/>
    <path id="Trazado_15954" data-name="Trazado 15954" d="M58.415,60.175a37.325,37.325,0,0,1-4.292-6.7c-.13-.268-.552-1.069-.605-1.279-.022-.086-.041-.133.039-.2L59.2,48.128A29.68,29.68,0,0,0,61.9,53.441c.375.6.79,1.24,1.205,1.806-.6.263-.315.762.235.39.014.02.116.114.157.157-.74.365.281.771.39,1.253a3.2,3.2,0,0,0-1.016-.078c.069-.423.535,0,.39-.627-.511-.083-1,.379-.663.859.265.372.486.165.787.155a.314.314,0,0,1,.19.082c-.022.2-.372.393-.549.549-.224-.138-.2-.382-.44-.538a.913.913,0,0,0-1.359,1.085c-1.318-.439-1.928.958-.937,1.8-.044.03-.132.05-.157.078-.143-.027-.182.014-.157.157-.1.091-.2.2-.314.312-.248-.2.091-1.24,0-1.329a1.422,1.422,0,0,0-.607.06c-.288.114-.345.506-.646.566" transform="translate(-50.016 3.345)" fill="#582e73"/>
    <path id="Trazado_15955" data-name="Trazado 15955" d="M80.113,61.232l2.041,6.642a40.576,40.576,0,0,1-10.247-.392l1.251-6.728a34.065,34.065,0,0,0,6.955.478" transform="translate(-39.568 10.512)" fill="#582e73"/>
    <path id="Trazado_15956" data-name="Trazado 15956" d="M78.005,39.008a3.21,3.21,0,0,1-.078,1.017c.4.052.387-.368.625-.547.086.078.212.215.235.235a1.09,1.09,0,0,1-1.486.7.949.949,0,0,1-.98,1.257.917.917,0,0,1-.116-1.806c.091-.129-.566-.679-.544-.81.441-.614.837.541,1.248.732a1.257,1.257,0,0,1,.625-1.094,4.371,4.371,0,0,1,.47.312m-.314.157c-.426-.039-.459.8-.194.861.295.069.177-.716.194-.861m-1.43,1.111a.515.515,0,0,0,0,.989c.85.152.9-1.191,0-.989" transform="translate(-37.53 -2.008)" fill="#582e73"/>
    <path id="Trazado_15957" data-name="Trazado 15957" d="M60.749,54.669c-.124.11-.306.246-.469.392,0-1.572-1.967-.058-.392.312-.328.279-.539.572-.939.861-.089-.357-.024-.707-.508-.707a.511.511,0,1,0,.039,1.021c-.017.306-.306.356-.47.469-.991-.842-.379-2.239.939-1.8a.913.913,0,0,1,1.359-1.085c.24.155.216.4.441.538" transform="translate(-47.733 6.661)" fill="#582e73"/>
    <path id="Trazado_15958" data-name="Trazado 15958" d="M60.245,53.019c.016.016.15.013.235.113a7.075,7.075,0,0,1,.629.865c-.072.187-.589.669-.785.665a.322.322,0,0,0-.19-.083c-.3.011-.522.218-.785-.154-.343-.48.15-.942.662-.859.146.625-.32.2-.39.625a3.2,3.2,0,0,1,1.016.078c-.11-.48-1.13-.887-.39-1.251" transform="translate(-46.761 6.122)" fill="#582e73"/>
    <path id="Trazado_15959" data-name="Trazado 15959" d="M56.635,56.043c.3-.06.357-.451.646-.567a1.422,1.422,0,0,1,.607-.06c.089.089-.249,1.129,0,1.331a.332.332,0,0,1-.24.273c-.361.122-.806-.72-1.013-.977m.861-.157c-.466.107-.484.6-.116.859a1.494,1.494,0,0,0,.116-.859" transform="translate(-48.236 7.479)" fill="#582e73"/>
    <path id="Trazado_15960" data-name="Trazado 15960" d="M58.8,55.671c-.144.105-.224.293-.469.314a.512.512,0,1,1-.039-1.022c.484,0,.419.351.508.709" transform="translate(-47.588 7.224)" fill="#582e73"/>
    <path id="Trazado_15961" data-name="Trazado 15961" d="M59.643,54.92c-.146.129-.27.21-.392.314-1.574-.372.4-1.886.392-.314" transform="translate(-47.097 6.803)" fill="#582e73"/>
    <path id="Trazado_15962" data-name="Trazado 15962" d="M96.337,56.005c-.379.484-.768.939-1.174,1.408a.857.857,0,0,1,.705-.861c.024-.342-.762-.683-.45-1,.356-.356.5.552.919.448" transform="translate(-26.369 7.515)" fill="#582e73"/>
    <path id="Trazado_15963" data-name="Trazado 15963" d="M77.672,39.365c-.238.18-.226.6-.625.547a3.2,3.2,0,0,0,.078-1.016,3.936,3.936,0,0,1,.547.469" transform="translate(-36.65 -1.895)" fill="#582e73"/>
    <path id="Trazado_15964" data-name="Trazado 15964" d="M59.985,53.061c-.55.37-.831-.127-.235-.392.114.155.18.318.235.392" transform="translate(-46.657 5.923)" fill="#582e73"/>
    <path id="Trazado_15965" data-name="Trazado 15965" d="M57.792,55.966c-.017.019.02.136,0,.157s-.138-.017-.157,0c-.025-.141.014-.183.157-.157" transform="translate(-47.672 7.79)" fill="#582e73"/>
    <path id="Trazado_15966" data-name="Trazado 15966" d="M76.119,39.712c.9-.2.851,1.141,0,.989a.515.515,0,0,1,0-.989" transform="translate(-37.387 -1.444)" fill="#582e73"/>
    <path id="Trazado_15967" data-name="Trazado 15967" d="M77.028,39c-.017.144.1.928-.194.859-.263-.061-.232-.9.194-.859" transform="translate(-36.867 -1.839)" fill="#582e73"/>
    <path id="Trazado_15968" data-name="Trazado 15968" d="M57.319,55.714a1.494,1.494,0,0,1-.116.859c-.368-.262-.35-.752.116-.859" transform="translate(-48.059 7.651)" fill="#582e73"/>
    <path id="Trazado_15969" data-name="Trazado 15969" d="M115.15,50.041h-9.929a2.195,2.195,0,1,0,0,4.389h9.929a2.195,2.195,0,0,0,0-4.389Z" transform="translate(-21.904 4.431)" fill="#582e73"/>
    <path id="Trazado_15970" data-name="Trazado 15970" d="M124.344,42.783H105.22a2.195,2.195,0,1,0,0,4.389h19.125a2.195,2.195,0,1,0,0-4.389Z" transform="translate(-21.905 0.312)" fill="#582e73"/>
    <path id="Trazado_15971" data-name="Trazado 15971" d="M124.344,35.581H105.22a2.195,2.195,0,1,0,0,4.389h19.125a2.195,2.195,0,1,0,0-4.389Z" transform="translate(-21.905 -3.776)" fill="#582e73"/>
    <path id="Trazado_15972" data-name="Trazado 15972" d="M142.429,34.961,128.31,20.974a1,1,0,0,0-.11-.088,1.617,1.617,0,0,0-.219-.18c-.053-.034-.11-.056-.157-.088a1.655,1.655,0,0,0-.207-.11h-.009a1.756,1.756,0,0,0-.215-.061c-.061-.017-.122-.044-.188-.056h-.009a2.608,2.608,0,0,0-.383-.034H97.363a2.2,2.2,0,0,0-2.195,2.195v8.007a26.8,26.8,0,0,1,4.389,4.209V24.745h25.019V36.672a2.2,2.2,0,0,0,2.195,2.195H138.7V78.683H99.555v-10.1c-.382.461-.784.917-1.2,1.356A26.935,26.935,0,0,1,95.167,72.8v8.078a2.2,2.2,0,0,0,2.195,2.195H140.88a2.2,2.2,0,0,0,2.195-2.195V36.52a2.209,2.209,0,0,0-.646-1.558m-13.47-.5V27.827l6.629,6.629Zm-32.2,16.668a2.194,2.194,0,0,0-1.6-2.054v4.217a2.194,2.194,0,0,0,1.6-2.163" transform="translate(-26.368 -12.418)" fill="#582e73"/>
  </g>
</svg>
