<svg xmlns="http://www.w3.org/2000/svg" width="252.763" height="94.854" viewBox="0 0 252.763 94.854">
  <g id="ID_COMPLETO_COLOR" data-name="ID COMPLETO COLOR" transform="translate(126.382 44.427)">
    <g id="ID_COMPLETO_COLOR-2" data-name="ID COMPLETO COLOR" transform="translate(-126.382 -44.427)">
      <g id="Grupo_46127" data-name="Grupo 46127">
        <text id="Impugna" transform="translate(82.395 45)" font-size="43" font-family="Roboto" font-weight="700"><tspan x="0" y="0">Impugna</tspan></text>
        <text id="INE" transform="translate(85.047 87.854)" font-size="24" font-family="Roboto" font-weight="700"><tspan x="0" y="0">INE</tspan></text>
        <g id="Grupo_46126" data-name="Grupo 46126" transform="translate(0 14.862)">
          <path id="Trazado_18746" data-name="Trazado 18746" d="M63.823,13.382C47.668,12.944,37.643,8.222,34.349,6.4a2.466,2.466,0,0,0-2.407,0c-3.294,1.826-13.319,6.537-29.474,6.986A2.557,2.557,0,0,0,.01,15.952v17.8A47.982,47.982,0,0,0,24.946,75.941l6.833,3.723a2.85,2.85,0,0,0,2.743,0l6.833-3.723A48.006,48.006,0,0,0,66.291,33.749v-17.8a2.544,2.544,0,0,0-2.458-2.57Zm-.816,19.775A45.622,45.622,0,0,1,39.3,73.32l-4.855,2.641a2.773,2.773,0,0,1-1.3.326,2.743,2.743,0,0,1-1.3-.326L27,73.32A45.623,45.623,0,0,1,3.274,33.157v-15.1a1.359,1.359,0,0,1,1.275-1.346c13.758-.938,23.212-4.579,28-6.915a1.364,1.364,0,0,1,.592-.143,1.234,1.234,0,0,1,.592.143c4.783,2.335,14.237,5.987,28,6.915A1.359,1.359,0,0,1,63,18.053v15.1Z" transform="translate(-0.01 -6.082)" fill="#80004c"/>
          <g id="Grupo_46125" data-name="Grupo 46125" transform="translate(7.384 13.092)">
            <g id="_9156_-_For" data-name="9156 - For" transform="translate(14.309)">
              <g id="Grupo_46122" data-name="Grupo 46122">
                <path id="Trazado_18747" data-name="Trazado 18747" d="M23.789,30.181a2.507,2.507,0,0,1-2.509-2.509V23.9a2.509,2.509,0,0,1,5.018,0v3.774a2.507,2.507,0,0,1-2.509,2.509Zm0-7.8a1.5,1.5,0,0,0-1.5,1.5v3.774a1.5,1.5,0,0,0,3,0V23.878A1.5,1.5,0,0,0,23.789,22.379Z" transform="translate(-21.28 -18.871)" fill="#a0005f"/>
                <path id="Trazado_18748" data-name="Trazado 18748" d="M27.729,30.2a2.507,2.507,0,0,1-2.509-2.509V23.159a2.509,2.509,0,0,1,5.018,0v4.528A2.507,2.507,0,0,1,27.729,30.2Zm0-8.557a1.5,1.5,0,0,0-1.5,1.5v4.528a1.5,1.5,0,0,0,3,0V23.138A1.5,1.5,0,0,0,27.729,21.639Z" transform="translate(-21.202 -18.885)" fill="#a0005f"/>
                <path id="Trazado_18749" data-name="Trazado 18749" d="M35.629,28.466h-.082a2.559,2.559,0,0,1-2.437-2.56V21.48a2.545,2.545,0,0,1,2.478-2.56,2.508,2.508,0,0,1,2.55,2.509v1.3a.494.494,0,0,1-.5.5.5.5,0,0,1-.5-.5v-1.3a1.489,1.489,0,0,0-.439-1.061,1.5,1.5,0,0,0-2.56,1.112v4.436a1.546,1.546,0,0,0,1.458,1.55,1.483,1.483,0,0,0,1.5-1.112.507.507,0,1,1,.979.265,2.522,2.522,0,0,1-2.437,1.846Z" transform="translate(-21.045 -18.92)" fill="#a0005f"/>
                <path id="Trazado_18750" data-name="Trazado 18750" d="M43.369,27.068a.494.494,0,0,1-.5-.5V24.345a1.3,1.3,0,0,0-1.3-1.3H38.249a1.555,1.555,0,0,0-.5.082,1.59,1.59,0,0,0-.571.357,1.5,1.5,0,0,0,.52,2.458,1.517,1.517,0,0,0,.561.1h.826a.494.494,0,0,1,.5.5.5.5,0,0,1-.5.5h-.826a2.391,2.391,0,0,1-.928-.184,2.5,2.5,0,0,1,.092-4.7,2.572,2.572,0,0,1,.836-.143h3.3a2.3,2.3,0,0,1,2.3,2.3v2.223a.5.5,0,0,1-.5.5Z" transform="translate(-20.993 -18.858)" fill="#a0005f"/>
                <path id="Trazado_18751" data-name="Trazado 18751" d="M31.679,29.707A2.507,2.507,0,0,1,29.17,27.2v-5.12a2.509,2.509,0,1,1,5.018,0V27.2a2.507,2.507,0,0,1-2.509,2.509Zm0-9.138a1.5,1.5,0,0,0-1.5,1.5v5.12a1.5,1.5,0,1,0,3,0v-5.12A1.5,1.5,0,0,0,31.679,20.569Z" transform="translate(-21.123 -18.907)" fill="#a0005f"/>
                <path id="Trazado_18752" data-name="Trazado 18752" d="M33.95,35.189a.494.494,0,0,1-.5-.5,5.521,5.521,0,0,1,1.632-4.3,5.646,5.646,0,0,1,3.549-1.326V26.49a.494.494,0,0,1,.5-.5.5.5,0,0,1,.5.5v3.1a.534.534,0,0,1-.163.377.484.484,0,0,1-.388.122,4.889,4.889,0,0,0-3.345,1.061,4.585,4.585,0,0,0-1.3,3.549A.483.483,0,0,1,33.95,35.189Z" transform="translate(-21.038 -18.779)" fill="#a0005f"/>
                <path id="Trazado_18753" data-name="Trazado 18753" d="M43.626,25.98a.494.494,0,0,0-.5.5v.857A12.968,12.968,0,0,1,39.8,36.026a6.654,6.654,0,0,0-1.265,2.07A7.474,7.474,0,0,0,38.2,39.34a.87.87,0,0,0,0,.163V51.864a1.6,1.6,0,0,1-1.622,1.5H27.747a1.612,1.612,0,0,1-1.622-1.509V39.371h0V39.32a6.848,6.848,0,0,0-1.173-2.55l-.551-.724a5.724,5.724,0,0,1-1.132-3.417V29.58a.494.494,0,0,0-.5-.5.5.5,0,0,0-.5.5V32.63a6.753,6.753,0,0,0,1.346,4.018l.551.724a5.626,5.626,0,0,1,.979,2.091V51.874a2.614,2.614,0,0,0,2.631,2.509h8.832a2.614,2.614,0,0,0,2.631-2.509V39.422a6.053,6.053,0,0,1,.265-.959A5.569,5.569,0,0,1,40.577,36.7a13.972,13.972,0,0,0,3.58-9.362V26.48a.494.494,0,0,0-.5-.5Z" transform="translate(-21.26 -18.779)" fill="#a0005f"/>
              </g>
            </g>
            <g id="Grupo_46124" data-name="Grupo 46124" transform="translate(0 5.018)">
              <circle id="Elipse_400" data-name="Elipse 400" cx="1.611" cy="1.611" r="1.611" transform="translate(4.824)" fill="#d5007f" stroke="#d5007f" stroke-linecap="round" stroke-linejoin="round" stroke-width="1.02"/>
              <circle id="Elipse_401" data-name="Elipse 401" cx="1.611" cy="1.611" r="1.611" transform="translate(43.446)" fill="#d5007f" stroke="#d5007f" stroke-linecap="round" stroke-linejoin="round" stroke-width="1.02"/>
              <path id="Trazado_18754" data-name="Trazado 18754" d="M13.685,50.8a6.435,6.435,0,0,0,6.435-6.435H7.25A6.435,6.435,0,0,0,13.685,50.8Z" transform="translate(-7.25 -23.432)" fill="none" stroke="#d5007f" stroke-linecap="round" stroke-linejoin="round" stroke-width="1.02"/>
              <path id="Trazado_18755" data-name="Trazado 18755" d="M51.555,50.8a6.435,6.435,0,0,0,6.435-6.435H45.12A6.435,6.435,0,0,0,51.555,50.8Z" transform="translate(-6.498 -23.432)" fill="none" stroke="#d5007f" stroke-linecap="round" stroke-linejoin="round" stroke-width="1.02"/>
              <path id="Trazado_18756" data-name="Trazado 18756" d="M13.685,25.42,7.25,44.726H20.121Z" transform="translate(-7.25 -23.809)" fill="none" stroke="#d5007f" stroke-linecap="round" stroke-linejoin="round" stroke-width="1.02"/>
              <path id="Trazado_18757" data-name="Trazado 18757" d="M51.555,25.42,45.12,44.726H57.991Z" transform="translate(-6.498 -23.809)" fill="none" stroke="#d5007f" stroke-linecap="round" stroke-linejoin="round" stroke-width="1.02"/>
              <g id="Grupo_46123" data-name="Grupo 46123" transform="translate(8.047)">
                <path id="Trazado_18758" data-name="Trazado 18758" d="M20.392,23.84H16.517a1.384,1.384,0,0,0-1.377,1.377v.235a1.384,1.384,0,0,0,1.377,1.377h3.875Z" transform="translate(-15.14 -23.84)" fill="#d5007f" stroke="#d5007f" stroke-linecap="round" stroke-linejoin="round" stroke-width="1.02"/>
                <path id="Trazado_18759" data-name="Trazado 18759" d="M48.575,23.84H44.7v2.988h3.875a1.384,1.384,0,0,0,1.377-1.377v-.235A1.384,1.384,0,0,0,48.575,23.84Z" transform="translate(-14.553 -23.84)" fill="#d5007f" stroke="#d5007f" stroke-linecap="round" stroke-linejoin="round" stroke-width="1.02"/>
              </g>
            </g>
          </g>
        </g>
        <line id="Línea_4442" data-name="Línea 4442" x2="168.39" transform="translate(84.373 62.548)" fill="none" stroke="#000" stroke-width="2.04"/>
      </g>
    </g>
  </g>
</svg>
