<svg xmlns="http://www.w3.org/2000/svg" xmlns:xlink="http://www.w3.org/1999/xlink" width="110.53" height="73.056" viewBox="0 0 110.53 73.056">
  <defs>
    <clipPath id="clip-path">
      <rect id="Rectángulo_28908" data-name="Rectángulo 28908" width="110.53" height="73.056" fill="#582e73"/>
    </clipPath>
  </defs>
  <g id="Grupo_45068" data-name="Grupo 45068" transform="translate(-4.53 0)">
    <g id="Grupo_45067" data-name="Grupo 45067" transform="translate(4.53 0)" clip-path="url(#clip-path)">
      <path id="Trazado_16896" data-name="Trazado 16896" d="M51.953,29.685H40.386a2.556,2.556,0,0,0,0,5.113H51.953a2.556,2.556,0,1,0,0-5.113Z" transform="translate(31.249 24.521)" fill="#582e73"/>
      <path id="Trazado_16897" data-name="Trazado 16897" d="M62.663,22.427H40.385a2.556,2.556,0,1,0,0,5.113H62.663a2.556,2.556,0,0,0,0-5.113Z" transform="translate(31.248 18.525)" fill="#582e73"/>
      <path id="Trazado_16898" data-name="Trazado 16898" d="M62.663,15.225H40.385a2.556,2.556,0,1,0,0,5.113H62.663a2.556,2.556,0,0,0,0-5.113Z" transform="translate(31.248 12.576)" fill="#582e73"/>
      <path id="Trazado_16899" data-name="Trazado 16899" d="M85.025,17.013,68.578.719a1.161,1.161,0,0,0-.128-.1,1.884,1.884,0,0,0-.256-.21c-.062-.04-.128-.066-.183-.1a1.927,1.927,0,0,0-.241-.128H67.76a2.045,2.045,0,0,0-.25-.071c-.071-.02-.142-.051-.219-.066H67.28A3.038,3.038,0,0,0,66.835,0h-34.3a2.557,2.557,0,0,0-2.556,2.556v9.327a31.216,31.216,0,0,1,5.113,4.9V5.113H64.231V19.005a2.557,2.557,0,0,0,2.556,2.556H80.68V67.943h-45.6V56.173c-.446.537-.913,1.068-1.4,1.58a31.374,31.374,0,0,1-3.711,3.338V70.5a2.557,2.557,0,0,0,2.556,2.556H83.221A2.557,2.557,0,0,0,85.778,70.5V18.828a2.573,2.573,0,0,0-.752-1.815m-15.691-.588V8.7l7.722,7.722ZM31.826,35.841a2.555,2.555,0,0,0-1.861-2.392v4.912a2.556,2.556,0,0,0,1.861-2.52" transform="translate(24.752 0)" fill="#582e73"/>
      <path id="Trazado_16900" data-name="Trazado 16900" d="M49.574,28.681a2.556,2.556,0,0,1-1.861,2.52,2.353,2.353,0,0,1-.628.1l-15.364.4.409,15.435a2.557,2.557,0,0,1-5.113.133l-.409-15.43-15.5.409a2.556,2.556,0,1,1-.135-5.111l15.5-.409L26.063,11.3a2.556,2.556,0,1,1,5.111-.133l.4,15.435,15.37-.409a2.492,2.492,0,0,1,.761.1,2.557,2.557,0,0,1,1.864,2.392" transform="translate(7.006 7.166)" fill="#582e73"/>
      <path id="Trazado_16901" data-name="Trazado 16901" d="M72.008,35.3c-.026-.869-.077-1.733-.159-2.586a35.856,35.856,0,0,0-11.055-22.59q-.477-.452-.966-.878a36.014,36.014,0,0,0-48.6,53.145,35.944,35.944,0,0,0,48.6.871q1.2-1.057,2.31-2.228a35.691,35.691,0,0,0,9.609-20.28,36.3,36.3,0,0,0,.257-5.454M59.829,55.935c-.444.537-.913,1.068-1.4,1.58a31.374,31.374,0,0,1-3.711,3.338A30.9,30.9,0,1,1,35.188,5.363a30.642,30.642,0,0,1,19.524,6.3,31.217,31.217,0,0,1,5.113,4.9,30.9,30.9,0,0,1,0,39.377Z" transform="translate(0 0.199)" fill="#582e73"/>
    </g>
  </g>
</svg>
