<svg id="Grupo_45066" data-name="Grupo 45066" xmlns="http://www.w3.org/2000/svg" xmlns:xlink="http://www.w3.org/1999/xlink" width="113.766" height="93.299" viewBox="0 0 113.766 93.299">
  <defs>
    <clipPath id="clip-path">
      <rect id="Rectángulo_28907" data-name="Rectángulo 28907" width="113.766" height="93.299" fill="#582e73"/>
    </clipPath>
  </defs>
  <g id="Grupo_45065" data-name="Grupo 45065" clip-path="url(#clip-path)">
    <path id="Trazado_16889" data-name="Trazado 16889" d="M41.492.443A17.011,17.011,0,1,1,24.481,17.454,17.01,17.01,0,0,1,41.492.443" transform="translate(15.381 0.278)" fill="#582e73"/>
    <path id="Trazado_16890" data-name="Trazado 16890" d="M58.635,22.754c-3.3,2.773-7.334,3.994-12.645,3.994A19.316,19.316,0,0,1,33.3,22.7c-11.9,2.167-15.975,13.847-15.975,22.947v3.779a10.166,10.166,0,0,0,4.657,8.583,25.6,25.6,0,0,0,3.193,1.729,20.88,20.88,0,0,0,41.638,0,25.84,25.84,0,0,0,3.066-1.651,10.239,10.239,0,0,0,4.784-8.671V45.643c0-8.378-3.662-20.536-16.024-22.889M45.99,75.406A17.265,17.265,0,1,1,63.255,58.141,17.264,17.264,0,0,1,45.99,75.406" transform="translate(10.882 14.265)" fill="#582e73"/>
    <path id="Trazado_16891" data-name="Trazado 16891" d="M61.354,27.712a14.045,14.045,0,0,0,13.026-9.14A13.862,13.862,0,1,0,47.741,16.53a14.014,14.014,0,0,0,13.6,11.191,1.221,1.221,0,0,0,0-2.441A11.42,11.42,0,1,1,67.29,4.11a11.4,11.4,0,0,1,5.264,11.934,11.56,11.56,0,0,1-11.211,9.237,1.221,1.221,0,0,0,0,2.441Z" transform="translate(29.832 0)" fill="#582e73"/>
    <path id="Trazado_16892" data-name="Trazado 16892" d="M71.759,16.929c-3.769,3.086-10.087,3.486-14.462,1.514-1.054-.479-1.982-1.4-3.027-1.807s-2.763.41-3.74.811a14.191,14.191,0,0,0-5.683,4.307,1.242,1.242,0,0,0,.537,2.04C55.647,27.329,60.773,37.7,61.261,48.031a1.246,1.246,0,0,0,1.221,1.22,44,44,0,0,0,13.671-1.718c3.115-.987,6.533-2.451,8.309-5.342,1.553-2.529,1.407-5.722,1.251-8.592a21.885,21.885,0,0,0-2.783-9.843,14.868,14.868,0,0,0-9.98-7.148c-1.534-.313-2.188,2.04-.645,2.353,6.65,1.348,10.263,7.2,10.9,13.632.107,1.124.107,2.237.107,3.359a10.7,10.7,0,0,1-.41,3.887c-1.075,2.88-4.15,4.238-6.865,5.157A41.287,41.287,0,0,1,62.492,46.8l1.22,1.221c-.545-11.484-6.327-22.685-17.664-26.59l.537,2.04a12.432,12.432,0,0,1,7.547-4.561l-.936-.127c5.78,4.229,14.646,4.473,20.3-.156,1.221-.995-.516-2.714-1.728-1.728Z" transform="translate(27.962 10.382)" fill="#582e73"/>
    <path id="Trazado_16893" data-name="Trazado 16893" d="M19.2,27.694a14.045,14.045,0,0,0,13.026-9.14,13.933,13.933,0,0,0-4.18-15.371,14.081,14.081,0,0,0-16.024-1.21A13.972,13.972,0,0,0,5.6,16.5,14.014,14.014,0,0,0,19.2,27.694a1.221,1.221,0,0,0,0-2.441A11.42,11.42,0,1,1,25.145,4.082a11.4,11.4,0,0,1,5.264,11.934A11.56,11.56,0,0,1,19.2,25.253a1.221,1.221,0,0,0,0,2.441" transform="translate(3.36 0.018)" fill="#582e73"/>
    <path id="Trazado_16894" data-name="Trazado 16894" d="M4.2,45.1c5.6,3.5,12.645,4.219,19.1,4.16a1.242,1.242,0,0,0,1.221-1.221C25.01,37.7,30.136,27.334,40.4,23.8a1.241,1.241,0,0,0,.824-1.55,1.265,1.265,0,0,0-.287-.49,14.22,14.22,0,0,0-5.683-4.307c-.957-.391-2.726-1.22-3.74-.809-1.1.438-2.061,1.386-3.183,1.874a16.055,16.055,0,0,1-7.8.938,13.532,13.532,0,0,1-3.721-.86,11.073,11.073,0,0,1-1.522-.762c-.518-.313-.977-.821-1.514-1.083-.918-.459-2.46.213-3.349.555a13.9,13.9,0,0,0-2.89,1.456,15.175,15.175,0,0,0-4.238,4.3A21.46,21.46,0,0,0,.06,33.965,33.95,33.95,0,0,0,.08,38.31,9.057,9.057,0,0,0,4.2,45.1c1.309.87,2.538-1.241,1.231-2.109a6.557,6.557,0,0,1-2.794-3.965,13.342,13.342,0,0,1-.155-3.056,25.9,25.9,0,0,1,.555-6.015c1.28-5.46,4.776-9.843,10.449-10.986l-1.19-.313c5.653,4.619,14.519,4.375,20.3.156l-.936.127A12.381,12.381,0,0,1,39.207,23.5l.537-2.042c-11.336,3.906-17.128,15.107-17.664,26.59l1.22-1.221c-6.044.059-12.626-.555-17.869-3.826-1.338-.83-2.569,1.278-1.231,2.109Z" transform="translate(0 10.387)" fill="#582e73"/>
    <path id="Trazado_16895" data-name="Trazado 16895" d="M47.587,46.689H40.761V39.863a1.807,1.807,0,0,0-3.613,0v6.826H30.322a1.807,1.807,0,0,0,0,3.613h6.826v6.826a1.807,1.807,0,0,0,3.613,0V50.3h6.826a1.807,1.807,0,0,0,0-3.613" transform="translate(17.917 23.911)" fill="#582e73"/>
  </g>
</svg>
