<?xml version="1.0" encoding="UTF-8"?>
<svg id="Layer_2" data-name="Layer 2" xmlns="http://www.w3.org/2000/svg" viewBox="0 0 14.34 16">
  <defs>
    <style>
      .cls-1, .cls-2 {
        stroke: #fff;
        stroke-linecap: round;
        stroke-linejoin: round;
        stroke-width: .22px;
      }

      .cls-1, .cls-3 {
        fill: #fff;
      }

      .cls-2 {
        fill: none;
      }
    </style>
  </defs>
  <g id="SLIDE_5" data-name="SLIDE 5">
    <g>
      <path class="cls-3" d="M13.81,1.58c-3.5-.1-5.67-1.12-6.38-1.51-.16-.09-.36-.09-.52,0-.71.39-2.88,1.42-6.38,1.51-.3,0-.53.26-.53.56v3.85c0,3.82,2.07,7.32,5.4,9.13l1.48.81c.19.1.41.1.59,0l1.48-.81c3.32-1.81,5.4-5.32,5.4-9.13v-3.85c0-.3-.24-.55-.53-.56ZM13.64,5.86c0,3.64-1.97,6.97-5.13,8.69l-1.05.57c-.09.05-.18.07-.28.07s-.19-.02-.28-.07l-1.05-.57C2.68,12.83.71,9.5.71,5.86v-3.27c0-.15.12-.28.28-.29,2.98-.2,5.02-.99,6.06-1.5.04-.02.08-.03.13-.03s.09,0,.13.03c1.03.51,3.08,1.29,6.06,1.5.15.01.28.14.28.29v3.27Z"/>
      <g>
        <g id="_9156_-_For" data-name="9156 - For">
          <g>
            <path class="cls-3" d="M5.24,5.28c-.3,0-.54-.24-.54-.54v-.82c0-.3.24-.54.54-.54s.54.24.54.54v.82c0,.3-.24.54-.54.54ZM5.24,3.59c-.18,0-.33.15-.33.33v.82c0,.18.15.33.33.33s.33-.15.33-.33v-.82c0-.18-.15-.33-.33-.33Z"/>
            <path class="cls-3" d="M6.11,5.28c-.3,0-.54-.24-.54-.54v-.98c0-.3.24-.54.54-.54s.54.24.54.54v.98c0,.3-.24.54-.54.54ZM6.11,3.43c-.18,0-.33.15-.33.33v.98c0,.18.15.33.33.33s.33-.15.33-.33v-.98c0-.18-.15-.33-.33-.33Z"/>
            <path class="cls-3" d="M7.85,4.9h-.02c-.29,0-.53-.26-.53-.55v-.96c0-.3.24-.55.54-.55.15,0,.29.05.39.16s.16.24.16.38v.28c0,.06-.05.11-.11.11s-.11-.05-.11-.11v-.28c0-.09-.03-.17-.1-.23s-.15-.1-.23-.1c-.18,0-.32.15-.32.34v.96c0,.18.14.33.32.34.15,0,.29-.09.33-.24.02-.06.08-.09.13-.08s.09.08.08.13c-.07.24-.28.4-.53.4Z"/>
            <path class="cls-3" d="M9.54,4.61c-.06,0-.11-.05-.11-.11v-.48c0-.15-.13-.28-.28-.28h-.72s-.08,0-.11.02c-.05.02-.09.04-.12.08-.06.06-.1.14-.1.23,0,.13.08.25.21.3.04.02.08.02.12.02h.18c.06,0,.11.05.11.11s-.05.11-.11.11h-.18c-.07,0-.14-.01-.2-.04-.21-.08-.34-.28-.34-.5,0-.15.06-.28.16-.38.06-.06.13-.1.2-.13.06-.02.12-.03.18-.03h.72c.28,0,.5.22.5.5v.48c0,.06-.05.11-.11.11Z"/>
            <path class="cls-3" d="M6.98,5.17c-.3,0-.54-.24-.54-.54v-1.11c0-.3.24-.54.54-.54s.54.24.54.54v1.11c0,.3-.24.54-.54.54ZM6.98,3.19c-.18,0-.33.15-.33.33v1.11c0,.18.15.33.33.33s.33-.15.33-.33v-1.11c0-.18-.15-.33-.33-.33Z"/>
            <path class="cls-3" d="M7.49,6.38c-.06,0-.11-.05-.11-.11,0-.41.12-.72.35-.93.26-.24.59-.28.77-.29v-.56c0-.06.05-.11.11-.11s.11.05.11.11v.67s-.01.06-.04.08c-.02.02-.05.03-.08.03,0,0-.43-.04-.72.23-.19.17-.28.43-.28.77,0,.06-.05.11-.11.11Z"/>
            <path class="cls-3" d="M9.54,4.39c-.06,0-.11.05-.11.11v.19c0,.7-.25,1.36-.72,1.88-.12.13-.21.28-.27.45-.03.09-.06.18-.07.27,0,.01,0,.02,0,.04v2.67c0,.18-.17.33-.35.33h-1.91c-.18,0-.35-.15-.35-.33v-2.7h0s0,0,0-.01c-.05-.2-.13-.39-.25-.55l-.12-.16c-.16-.21-.25-.48-.25-.74v-.66c0-.06-.05-.11-.11-.11s-.11.05-.11.11v.66c0,.31.1.62.29.87l.12.16c.1.13.17.29.21.45v2.69c0,.3.27.54.57.54h1.91c.3,0,.57-.24.57-.54v-2.7c.01-.07.03-.14.06-.21.05-.14.13-.27.23-.38.5-.56.78-1.28.78-2.03v-.19c0-.06-.05-.11-.11-.11Z"/>
          </g>
        </g>
        <g>
          <circle class="cls-1" cx="2.99" cy="4.27" r=".35"/>
          <circle class="cls-1" cx="11.35" cy="4.27" r=".35"/>
          <path class="cls-2" d="M2.99,9.84c.77,0,1.39-.62,1.39-1.39H1.6c0,.77.62,1.39,1.39,1.39Z"/>
          <path class="cls-2" d="M11.35,9.84c.77,0,1.39-.62,1.39-1.39h-2.79c0,.77.62,1.39,1.39,1.39Z"/>
          <polygon class="cls-2" points="2.99 4.27 1.6 8.45 4.39 8.45 2.99 4.27"/>
          <polygon class="cls-2" points="11.35 4.27 9.96 8.45 12.75 8.45 11.35 4.27"/>
          <g>
            <path class="cls-1" d="M4.48,3.92h-.84c-.16,0-.3.13-.3.3v.05c0,.16.13.3.3.3h.84v-.65Z"/>
            <path class="cls-1" d="M10.71,3.92h-.84v.65h.84c.16,0,.3-.13.3-.3v-.05c0-.16-.13-.3-.3-.3Z"/>
          </g>
        </g>
      </g>
    </g>
  </g>
</svg>