<?xml version="1.0" encoding="UTF-8"?>
<svg id="Layer_2" data-name="Layer 2" xmlns="http://www.w3.org/2000/svg" viewBox="0 0 28.69 32">
  <defs>
    <style>
      .cls-1 {
        fill: #80004c;
      }

      .cls-2 {
        fill: none;
      }

      .cls-2, .cls-3 {
        stroke: #d5007f;
        stroke-linecap: round;
        stroke-linejoin: round;
        stroke-width: .44px;
      }

      .cls-3 {
        fill: #d5007f;
      }
    </style>
  </defs>
  <g id="SLIDE_5" data-name="SLIDE 5">
    <g>
      <path class="cls-1" d="M27.63,3.16c-6.99-.19-11.33-2.23-12.76-3.02-.32-.18-.72-.18-1.04,0-1.43.79-5.77,2.83-12.76,3.02-.59.02-1.06.51-1.06,1.11v7.7c0,7.63,4.15,14.65,10.79,18.26l2.96,1.61c.37.2.82.2,1.19,0l2.96-1.61c6.65-3.62,10.79-10.63,10.79-18.26v-7.7c0-.6-.47-1.1-1.06-1.11ZM27.27,11.72c0,7.28-3.93,13.94-10.27,17.39l-2.1,1.14c-.17.09-.37.14-.56.14s-.39-.05-.56-.14l-2.1-1.14C5.35,25.65,1.42,18.99,1.42,11.72v-6.54c0-.31.24-.56.55-.58,5.96-.41,10.05-1.98,12.12-2.99.08-.04.17-.06.26-.06s.17.02.26.06c2.07,1.01,6.16,2.59,12.12,2.99.31.02.55.28.55.58v6.54Z"/>
      <g>
        <g id="_9156_-_For" data-name="9156 - For">
          <g>
            <path class="cls-1" d="M10.48,10.56c-.6,0-1.09-.49-1.09-1.09v-1.63c0-.6.49-1.09,1.09-1.09s1.09.49,1.09,1.09v1.63c0,.6-.49,1.09-1.09,1.09ZM10.48,7.18c-.36,0-.65.29-.65.65v1.63c0,.36.29.65.65.65s.65-.29.65-.65v-1.63c0-.36-.29-.65-.65-.65Z"/>
            <path class="cls-1" d="M12.22,10.56c-.6,0-1.09-.49-1.09-1.09v-1.96c0-.6.49-1.09,1.09-1.09s1.09.49,1.09,1.09v1.96c0,.6-.49,1.09-1.09,1.09ZM12.22,6.86c-.36,0-.65.29-.65.65v1.96c0,.36.29.65.65.65s.65-.29.65-.65v-1.96c0-.36-.29-.65-.65-.65Z"/>
            <path class="cls-1" d="M15.7,9.79h-.04c-.58-.02-1.06-.52-1.06-1.11v-1.91c0-.6.48-1.1,1.07-1.11.3,0,.58.11.79.32s.32.48.32.77v.56c0,.12-.1.22-.22.22s-.22-.1-.22-.22v-.56c0-.17-.07-.34-.19-.46s-.3-.19-.47-.19c-.35,0-.64.31-.64.67v1.92c0,.36.28.66.63.67.3,0,.57-.19.65-.48.03-.12.15-.19.27-.15s.19.15.15.27c-.13.48-.56.8-1.06.8Z"/>
            <path class="cls-1" d="M19.08,9.22c-.12,0-.22-.1-.22-.22v-.96c0-.31-.25-.56-.56-.56h-1.44c-.08,0-.15.01-.22.04-.09.03-.18.09-.25.15-.12.12-.19.29-.19.46,0,.27.16.51.41.6.08.03.16.05.24.05h.36c.12,0,.22.1.22.22s-.1.22-.22.22h-.36c-.14,0-.27-.03-.4-.08-.42-.16-.69-.56-.69-1.01,0-.29.11-.56.32-.77.11-.11.25-.2.41-.25.11-.04.24-.06.36-.06h1.43c.55,0,1,.45,1,1v.96c0,.12-.1.22-.22.22Z"/>
            <path class="cls-1" d="M13.96,10.34c-.6,0-1.09-.49-1.09-1.09v-2.21c0-.6.49-1.09,1.09-1.09s1.09.49,1.09,1.09v2.21c0,.6-.49,1.09-1.09,1.09ZM13.96,6.38c-.36,0-.65.29-.65.65v2.21c0,.36.29.65.65.65s.65-.29.65-.65v-2.21c0-.35-.29-.65-.65-.65Z"/>
            <path class="cls-1" d="M14.98,12.77c-.12,0-.22-.1-.22-.22,0-.81.24-1.44.7-1.86.52-.47,1.19-.56,1.54-.57v-1.11c0-.12.1-.22.22-.22s.22.1.22.22v1.34c0,.06-.03.12-.07.16-.05.04-.1.06-.17.05,0,0-.86-.07-1.45.46-.37.34-.56.85-.56,1.54,0,.12-.1.21-.21.21Z"/>
            <path class="cls-1" d="M19.07,8.78c-.12,0-.22.1-.22.22v.37c0,1.39-.51,2.72-1.44,3.76-.24.26-.42.56-.55.9-.06.18-.11.35-.15.54,0,.02,0,.05,0,.07v5.35c0,.36-.34.65-.7.65h-3.82c-.36,0-.7-.29-.7-.65v-5.4h0s0-.01,0-.02c-.09-.4-.26-.77-.51-1.11l-.24-.31c-.32-.42-.49-.95-.49-1.48v-1.32c0-.12-.1-.22-.22-.22s-.22.1-.22.22v1.32c0,.62.21,1.24.58,1.74l.24.31c.2.27.34.58.42.9v5.37c0,.6.54,1.09,1.14,1.09h3.82c.6,0,1.14-.49,1.14-1.09v-5.39c.02-.14.06-.28.11-.41.1-.28.26-.54.46-.76,1-1.11,1.55-2.56,1.55-4.05v-.37c0-.12-.1-.22-.22-.22Z"/>
          </g>
        </g>
        <g>
          <circle class="cls-3" cx="5.99" cy="8.53" r=".7"/>
          <circle class="cls-3" cx="22.7" cy="8.53" r=".7"/>
          <path class="cls-2" d="M5.99,19.68c1.54,0,2.79-1.25,2.79-2.79H3.2c0,1.54,1.25,2.79,2.79,2.79Z"/>
          <path class="cls-2" d="M22.7,19.68c1.54,0,2.79-1.25,2.79-2.79h-5.57c0,1.54,1.25,2.79,2.79,2.79Z"/>
          <polygon class="cls-2" points="5.99 8.53 3.2 16.89 8.77 16.89 5.99 8.53"/>
          <polygon class="cls-2" points="22.7 8.53 19.92 16.89 25.49 16.89 22.7 8.53"/>
          <g>
            <path class="cls-3" d="M7.28,7.84h1.68v1.29h-1.68c-.33,0-.6-.27-.6-.6v-.1c0-.33.27-.6.6-.6Z"/>
            <path class="cls-3" d="M19.74,7.84h1.68c.33,0,.6.27.6.6v.1c0,.33-.27.6-.6.6h-1.68v-1.29h0Z"/>
          </g>
        </g>
      </g>
    </g>
  </g>
</svg>