<?xml version="1.0" encoding="UTF-8"?>
<svg xmlns="http://www.w3.org/2000/svg" viewBox="0 0 64 64">
  <defs>
    <style>
      .bg { fill: #5B2A73; }
      .cls-1 { fill: #F0EBF2; }
      .cls-4 { fill: #d5007f; }
      .cls-2 {
        fill: none;
        stroke: #d5007f;
        stroke-linecap: round;
        stroke-linejoin: round;
        stroke-width: 1px;
      }
    </style>
  </defs>

  <!-- Background morado con esquinas redondeadas -->
  <rect class="bg" width="64" height="64" rx="12"/>

  <!-- Shield scaled para 64x64 -->
  <g transform="translate(18, 16.5) scale(0.125)">
    <!-- Shield outline -->
    <path class="cls-1" d="M214.65,24.53c-54.34-1.49-88.04-17.34-99.14-23.48-2.52-1.39-5.59-1.39-8.11,0-11.1,6.14-44.8,21.99-99.14,23.48-4.61.13-8.26,3.99-8.26,8.65v59.86c0,59.29,32.21,113.79,83.85,141.9l22.99,12.51c2.88,1.57,6.35,1.57,9.23,0l22.99-12.51c51.64-28.11,83.85-82.61,83.85-141.9v-59.86c0-4.66-3.65-8.53-8.26-8.65Z"/>

    <!-- Símbolo interno simplificado -->
    <circle class="cls-4" cx="46.51" cy="66.3" r="5.41"/>
    <circle class="cls-4" cx="176.4" cy="66.3" r="5.41"/>
    <polygon class="cls-2" points="46.51 66.3 24.86 131.24 68.16 131.24 46.51 66.3"/>
    <polygon class="cls-2" points="176.4 66.3 154.75 131.24 198.05 131.24 176.4 66.3"/>
    <path class="cls-4" d="M69.58,60.89h-13.04c-2.54,0-4.62,2.08-4.62,4.62v.81c0,2.54,2.08,4.62,4.62,4.62h13.04v-10.05Z"/>
    <path class="cls-4" d="M166.36,60.89h-13.03v10.05h13.03c2.54,0,4.62-2.08,4.62-4.62v-.81c0-2.54-2.08-4.62-4.62-4.62Z"/>
  </g>
</svg>
