<?xml version="1.0" encoding="UTF-8"?>
<svg xmlns="http://www.w3.org/2000/svg" viewBox="0 0 220 70">
  <defs>
    <style>
      .shield-bg { fill: #80004c; }
      .shield-detail { fill: #a0005f; }
    </style>
  </defs>

  <!-- Escudo del INE simplificado -->
  <g transform="translate(5, 5) scale(0.25)">
    <!-- Borde exterior morado del escudo -->
    <path class="shield-bg" d="M214.65,24.53c-54.34-1.49-88.04-17.34-99.14-23.48-2.52-1.39-5.59-1.39-8.11,0-11.1,6.14-44.8,21.99-99.14,23.48-4.61.13-8.26,3.99-8.26,8.65v59.86c0,59.29,32.21,113.79,83.85,141.9l22.99,12.51c2.88,1.57,6.35,1.57,9.23,0l22.99-12.51c51.64-28.11,83.85-82.61,83.85-141.9v-59.86c0-4.66-3.65-8.53-8.26-8.65Z"/>
    <!-- Relleno blanco interior del escudo (solo el área interior) -->
    <path fill="#ffffff" style="mix-blend-mode: normal;" opacity="1" d="M211.89,91.02c0,56.54-30.56,108.3-79.76,135.08l-16.31,8.87c-1.36.74-2.86,1.11-4.36,1.11s-3.01-.38-4.36-1.11l-16.31-8.87C41.58,199.32,11.02,147.57,11.02,91.02v-50.8c0-2.4,1.9-4.37,4.3-4.54,46.28-3.15,78.06-15.41,94.15-23.27.64-.32,1.31-.47,1.99-.47s1.35.15,1.99.47c16.08,7.86,47.87,20.12,94.15,23.27,2.4.17,4.3,2.14,4.3,4.54v50.8Z"/>

    <!-- Letras OCHO simplificadas -->
    <path class="shield-detail" d="M81.42,82.04c-4.66,0-8.44-3.78-8.44-8.44v-12.68c0-4.66,3.78-8.44,8.44-8.44s8.44,3.78,8.44,8.44v12.68c.04,4.63-3.78,8.44-8.44,8.44ZM81.42,55.82c-2.79,0-5.05,2.26-5.05,5.05v12.68c0,2.79,2.26,5.05,5.05,5.05s5.05-2.26,5.05-5.05v-12.68c.04-2.79-2.26-5.05-5.05-5.05Z"/>
    <path class="shield-detail" d="M94.95,82.04c-4.66,0-8.44-3.78-8.44-8.44v-15.23c0-4.66,3.78-8.44,8.44-8.44s8.44,3.78,8.44,8.44v15.23c.04,4.63-3.78,8.44-8.44,8.44ZM94.95,53.28c-2.79,0-5.05,2.26-5.05,5.05v15.23c0,2.79,2.26,5.05,5.05,5.05s5.05-2.26,5.05-5.05v-15.23c.04-2.79-2.26-5.05-5.05-5.05Z"/>
    <path class="shield-detail" d="M108.49,80.34c-4.66,0-8.44-3.78-8.44-8.44v-17.21c0-4.66,3.78-8.44,8.44-8.44s8.44,3.78,8.44,8.44v17.21c.04,4.63-3.78,8.44-8.44,8.44ZM108.49,49.6c-2.79,0-5.05,2.26-5.05,5.05v17.21c0,2.79,2.26,5.05,5.05,5.05s5.05-2.26,5.05-5.05v-17.21c.04-2.76-2.26-5.05-5.05-5.05Z"/>
    <path class="shield-detail" d="M122.02,76.1h-.28c-4.52-.14-8.2-4.03-8.2-8.62v-14.88c0-4.7,3.75-8.55,8.34-8.62,2.3-.04,4.49.85,6.11,2.47,1.59,1.59,2.47,3.75,2.47,5.97v4.35c0,.95-.74,1.7-1.7,1.7s-1.7-.74-1.7-1.7v-4.35c0-1.34-.53-2.61-1.48-3.57-.99-.99-2.3-1.48-3.64-1.48-2.76.04-4.98,2.4-4.98,5.23v14.91c0,2.79,2.19,5.12,4.91,5.23,2.37.07,4.45-1.45,5.05-3.75.25-.92,1.17-1.45,2.08-1.2.92.25,1.45,1.17,1.2,2.08-1.02,3.71-4.38,6.22-8.2,6.22Z"/>
    <path class="shield-detail" d="M148.23,71.61c-.95,0-1.7-.74-1.7-1.7v-7.49c0-2.4-1.94-4.35-4.35-4.35h-11.17c-.6,0-1.17.11-1.7.28-.71.25-1.38.67-1.91,1.2-.95.95-1.48,2.23-1.48,3.57,0,2.08,1.27,3.96,3.22,4.7.6.25,1.24.35,1.87.35h2.79c.95,0,1.7.74,1.7,1.7s-.74,1.7-1.7,1.7h-2.79c-1.1,0-2.12-.21-3.11-.6-3.25-1.27-5.34-4.38-5.34-7.84,0-2.26.88-4.38,2.47-5.97.88-.88,1.98-1.59,3.18-1.98.88-.32,1.84-.49,2.83-.49h11.13c4.28,0,7.74,3.46,7.74,7.74v7.49c0,.92-.74,1.7-1.7,1.7Z"/>

    <!-- Mano/Brazo que sostiene la balanza -->
    <path class="shield-detail" fill="#a0005f" d="M148.2,68.22c-.95,0-1.7.74-1.7,1.7v2.9c0,10.81-3.96,21.16-11.17,29.22-1.84,2.05-3.25,4.38-4.24,6.96-.49,1.38-.88,2.76-1.13,4.17-.04.19-.03.38,0,.56v41.56c0,2.79-2.66,5.05-5.45,5.05h-29.7c-2.79-.01-5.45-2.27-5.45-5.06v-41.98h-.03c0-.06,0-.11,0-.16-.71-3.14-2.05-6.01-3.96-8.59l-1.84-2.44c-2.47-3.29-3.82-7.38-3.82-11.48v-10.25c0-.95-.74-1.7-1.7-1.7s-1.7.74-1.7,1.7v10.25c0,4.84,1.63,9.61,4.52,13.5l1.84,2.44c1.57,2.08,2.67,4.47,3.28,7.02v41.73c0,4.66,4.18,8.44,8.84,8.44h29.7c4.66.01,8.84-3.77,8.84-8.43v-41.88c.19-1.09.5-2.18.88-3.21.81-2.19,2.05-4.20,3.6-5.94,7.77-8.66,12.05-19.86,12.05-31.48v-2.9c0-.95-.74-1.7-1.7-1.7Z"/>

    <!-- Balanzas -->
    <circle class="shield-detail" cx="46.51" cy="66.3" r="5.41"/>
    <circle class="shield-detail" cx="176.4" cy="66.3" r="5.41"/>
    <path class="shield-detail" fill="none" stroke="#d5007f" stroke-width="3.43" stroke-linecap="round" stroke-linejoin="round" d="M46.51,152.89c11.96,0,21.65-9.69,21.65-21.65H24.86c0,11.96,9.69,21.65,21.65,21.65Z"/>
    <path class="shield-detail" fill="none" stroke="#d5007f" stroke-width="3.43" stroke-linecap="round" stroke-linejoin="round" d="M176.4,152.89c11.96,0,21.65-9.69,21.65-21.65h-43.3c0,11.96,9.69,21.65,21.65,21.65Z"/>
    <polygon fill="none" stroke="#d5007f" stroke-width="3.43" stroke-linecap="round" stroke-linejoin="round" points="46.51 66.3 24.86 131.24 68.16 131.24 46.51 66.3"/>
    <polygon fill="none" stroke="#d5007f" stroke-width="3.43" stroke-linecap="round" stroke-linejoin="round" points="176.4 66.3 154.75 131.24 198.05 131.24 176.4 66.3"/>
    <path class="shield-detail" fill="#d5007f" d="M69.58,60.89h-13.04c-2.54,0-4.62,2.08-4.62,4.62v.81c0,2.54,2.08,4.62,4.62,4.62h13.04v-10.05Z"/>
    <path class="shield-detail" fill="#d5007f" d="M166.36,60.89h-13.03v10.05h13.03c2.54,0,4.62-2.08,4.62-4.62v-.81c0-2.54-2.08-4.62-4.62-4.62Z"/>
  </g>

  <!-- Texto "Impugna" en BLANCO para dark mode -->
  <text x="72" y="43" font-family="Arial, Helvetica, sans-serif" font-size="32" font-weight="700" fill="#FFFFFF">Impugna</text>
</svg>
