<?xml version="1.0" encoding="UTF-8"?>
<svg id="Layer_2" data-name="Layer 2" xmlns="http://www.w3.org/2000/svg" viewBox="0 0 232.98 68.35">
  <defs>
    <style>
      .cls-1, .cls-2 {
        fill: #fff;
      }

      .cls-1, .cls-3 {
        stroke: #fff;
        stroke-linecap: round;
        stroke-linejoin: round;
      }

      .cls-3 {
        fill: none;
      }
    </style>
  </defs>
  <g id="SLIDE_5" data-name="SLIDE 5">
    <g>
      <g>
        <path class="cls-2" d="M84.82,46.01h-5.87v-28.51h5.87v28.51Z"/>
        <path class="cls-2" d="M95.2,24.83l.18,2.37c1.5-1.84,3.53-2.76,6.09-2.76,2.73,0,4.6,1.08,5.62,3.23,1.49-2.15,3.61-3.23,6.36-3.23,2.3,0,4.01.67,5.13,2.01,1.12,1.34,1.68,3.35,1.68,6.04v13.53h-5.68v-13.51c0-1.2-.23-2.08-.71-2.63-.47-.55-1.3-.83-2.49-.83-1.7,0-2.87.81-3.53,2.43l.02,14.55h-5.66v-13.49c0-1.23-.24-2.11-.72-2.66-.48-.55-1.31-.82-2.47-.82-1.61,0-2.77.67-3.49,2v14.98h-5.66v-21.19h5.31Z"/>
        <path class="cls-2" d="M143.69,35.61c0,3.26-.74,5.88-2.22,7.84-1.48,1.96-3.48,2.95-6,2.95-2.14,0-3.87-.74-5.19-2.23v9.99h-5.66v-29.33h5.25l.2,2.08c1.37-1.64,3.16-2.47,5.37-2.47,2.61,0,4.64.97,6.09,2.9,1.45,1.93,2.17,4.6,2.17,7.99v.29ZM138.03,35.2c0-1.97-.35-3.49-1.05-4.56-.7-1.07-1.71-1.61-3.04-1.61-1.78,0-3,.68-3.66,2.04v8.67c.69,1.4,1.92,2.1,3.7,2.1,2.7,0,4.05-2.21,4.05-6.64Z"/>
        <path class="cls-2" d="M159.88,43.86c-1.4,1.7-3.33,2.55-5.8,2.55-2.27,0-4-.65-5.2-1.96s-1.8-3.22-1.83-5.74v-13.88h5.66v13.7c0,2.21,1.01,3.31,3.02,3.31s3.24-.67,3.96-2v-15.02h5.68v21.19h-5.33l-.16-2.15Z"/>
        <path class="cls-2" d="M168.81,35.26c0-3.25.77-5.87,2.32-7.85s3.63-2.98,6.26-2.98c2.32,0,4.13.8,5.42,2.39l.23-2h5.13v20.48c0,1.85-.42,3.47-1.26,4.84-.84,1.37-2.03,2.42-3.55,3.13s-3.32,1.08-5.37,1.08c-1.55,0-3.07-.31-4.54-.93-1.48-.62-2.59-1.42-3.35-2.4l2.51-3.45c1.41,1.58,3.12,2.37,5.13,2.37,1.5,0,2.67-.4,3.51-1.2.83-.8,1.25-1.94,1.25-3.42v-1.14c-1.31,1.48-3.02,2.21-5.15,2.21-2.55,0-4.6-1-6.18-2.99-1.57-1.99-2.36-4.63-2.36-7.92v-.24ZM174.47,35.68c0,1.92.38,3.43,1.16,4.52.77,1.09,1.83,1.64,3.17,1.64,1.72,0,2.96-.65,3.7-1.94v-8.92c-.76-1.29-1.98-1.94-3.66-1.94-1.36,0-2.42.56-3.2,1.67-.78,1.11-1.17,2.77-1.17,4.98Z"/>
        <path class="cls-2" d="M197.73,24.83l.18,2.45c1.51-1.89,3.54-2.84,6.09-2.84,2.25,0,3.92.66,5.01,1.98,1.1,1.32,1.66,3.29,1.68,5.91v13.69h-5.66v-13.55c0-1.2-.26-2.07-.78-2.61-.52-.54-1.39-.81-2.6-.81-1.59,0-2.79.68-3.58,2.04v14.94h-5.66v-21.19h5.33Z"/>
        <path class="cls-2" d="M227.26,46.01c-.26-.51-.45-1.14-.57-1.9-1.37,1.53-3.15,2.29-5.35,2.29-2.08,0-3.8-.6-5.16-1.8-1.36-1.2-2.05-2.71-2.05-4.54,0-2.25.83-3.97,2.5-5.17,1.67-1.2,4.07-1.81,7.22-1.82h2.6v-1.21c0-.98-.25-1.76-.75-2.35-.5-.59-1.3-.88-2.38-.88-.95,0-1.7.23-2.24.69s-.81,1.08-.81,1.88h-5.66c0-1.23.38-2.36,1.14-3.41.76-1.04,1.83-1.86,3.21-2.46,1.38-.59,2.94-.89,4.66-.89,2.61,0,4.68.66,6.22,1.97,1.53,1.31,2.3,3.16,2.3,5.53v9.18c.01,2.01.29,3.53.84,4.56v.33h-5.72ZM222.58,42.08c.83,0,1.61-.19,2.31-.56s1.23-.87,1.57-1.5v-3.64h-2.11c-2.83,0-4.34.98-4.52,2.94l-.02.33c0,.71.25,1.29.74,1.74.5.46,1.17.69,2.04.69Z"/>
      </g>
      <g>
        <path class="cls-2" d="M59.01,6.74c-14.94-.41-24.2-4.77-27.25-6.45-.69-.38-1.54-.38-2.23,0-3.05,1.69-12.32,6.05-27.25,6.45-1.27.03-2.27,1.1-2.27,2.38v16.45c0,16.3,8.85,31.28,23.05,39.01l6.32,3.44c.79.43,1.75.43,2.54,0l6.32-3.44c14.2-7.73,23.05-22.71,23.05-39.01V9.12c0-1.28-1-2.34-2.27-2.38ZM58.25,25.02c0,15.54-8.4,29.77-21.93,37.13l-4.48,2.44c-.37.2-.79.31-1.2.31s-.83-.1-1.2-.31l-4.48-2.44C11.43,54.79,3.03,40.57,3.03,25.02v-13.96c0-.66.52-1.2,1.18-1.25,12.72-.87,21.46-4.24,25.88-6.4.18-.09.36-.13.55-.13s.37.04.55.13c4.42,2.16,13.16,5.53,25.88,6.4.66.05,1.18.59,1.18,1.25v13.96Z"/>
        <g>
          <g id="_9156_-_For" data-name="9156 - For">
            <g>
              <path class="cls-2" d="M22.38,22.55c-1.28,0-2.32-1.04-2.32-2.32v-3.49c0-1.28,1.04-2.32,2.32-2.32s2.32,1.04,2.32,2.32v3.49c0,1.27-1.04,2.32-2.32,2.32ZM22.38,15.34c-.77,0-1.39.62-1.39,1.39v3.49c0,.77.62,1.39,1.39,1.39s1.39-.62,1.39-1.39v-3.49c0-.77-.62-1.39-1.39-1.39Z"/>
              <path class="cls-2" d="M26.1,22.55c-1.28,0-2.32-1.04-2.32-2.32v-4.19c0-1.28,1.04-2.32,2.32-2.32s2.32,1.04,2.32,2.32v4.19c0,1.27-1.04,2.32-2.32,2.32ZM26.1,14.65c-.77,0-1.39.62-1.39,1.39v4.19c0,.77.62,1.39,1.39,1.39s1.39-.62,1.39-1.39v-4.19c0-.77-.62-1.39-1.39-1.39Z"/>
              <path class="cls-2" d="M33.54,20.92h-.08c-1.24-.04-2.25-1.11-2.25-2.37v-4.09c0-1.29,1.03-2.35,2.29-2.37.63,0,1.23.23,1.68.68s.68,1.03.68,1.64v1.19c0,.26-.2.47-.47.47s-.47-.2-.47-.47v-1.19c0-.37-.15-.72-.41-.98s-.63-.41-1-.41c-.76,0-1.37.66-1.37,1.44v4.1c0,.77.6,1.41,1.35,1.44.65.02,1.22-.4,1.39-1.03.07-.25.32-.4.57-.33s.4.32.33.57c-.28,1.02-1.2,1.71-2.25,1.71Z"/>
              <path class="cls-2" d="M40.75,19.69c-.26,0-.47-.2-.47-.47v-2.06c0-.66-.53-1.19-1.19-1.19h-3.07c-.17,0-.32.03-.47.08-.19.07-.38.18-.52.33-.26.26-.41.61-.41.98,0,.57.35,1.09.88,1.29.17.07.34.1.51.1h.77c.26,0,.47.2.47.47s-.2.47-.47.47h-.77c-.3,0-.58-.06-.85-.17-.89-.35-1.47-1.2-1.47-2.16,0-.62.24-1.2.68-1.64.24-.24.54-.44.87-.54.24-.09.51-.14.78-.14h3.06c1.18,0,2.13.95,2.13,2.13v2.06c0,.25-.2.47-.47.47Z"/>
              <path class="cls-2" d="M29.82,22.09c-1.28,0-2.32-1.04-2.32-2.32v-4.73c0-1.28,1.04-2.32,2.32-2.32s2.32,1.04,2.32,2.32v4.73c0,1.27-1.04,2.32-2.32,2.32ZM29.82,13.64c-.77,0-1.39.62-1.39,1.39v4.73c0,.77.62,1.39,1.39,1.39s1.39-.62,1.39-1.39v-4.73c0-.76-.62-1.39-1.39-1.39Z"/>
              <path class="cls-2" d="M32,27.27c-.26,0-.47-.2-.47-.47,0-1.74.51-3.08,1.51-3.98,1.12-1.01,2.54-1.19,3.28-1.22v-2.38c0-.26.2-.47.47-.47s.47.2.47.47v2.87c0,.14-.06.25-.16.35-.1.09-.22.14-.36.12-.02,0-1.85-.16-3.09.98-.8.72-1.19,1.83-1.19,3.28,0,.25-.2.46-.46.46Z"/>
              <path class="cls-2" d="M40.74,18.75c-.26,0-.47.2-.47.47v.8c0,2.97-1.09,5.82-3.07,8.03-.51.56-.89,1.2-1.17,1.91-.14.38-.24.76-.31,1.15-.01.05,0,.1,0,.15v11.42c0,.77-.73,1.39-1.5,1.39h-8.16c-.77,0-1.5-.62-1.5-1.39v-11.54h0s0-.03,0-.05c-.19-.86-.56-1.65-1.09-2.36l-.51-.67c-.68-.9-1.05-2.03-1.05-3.16v-2.82c0-.26-.2-.47-.47-.47s-.47.2-.47.47v2.82c0,1.33.45,2.64,1.24,3.71l.51.67c.43.57.73,1.23.9,1.93v11.47c0,1.28,1.15,2.32,2.43,2.32h8.16c1.28,0,2.43-1.04,2.43-2.32v-11.51c.05-.3.14-.6.24-.88.22-.6.56-1.16.99-1.63,2.14-2.38,3.31-5.46,3.31-8.65v-.8c0-.26-.2-.47-.47-.47Z"/>
            </g>
          </g>
          <g>
            <circle class="cls-1" cx="12.78" cy="18.23" r="1.49"/>
            <circle class="cls-1" cx="48.49" cy="18.23" r="1.49"/>
            <path class="cls-3" d="M12.78,42.03c3.29,0,5.95-2.66,5.95-5.95H6.83c0,3.29,2.66,5.95,5.95,5.95Z"/>
            <path class="cls-3" d="M48.49,42.03c3.29,0,5.95-2.66,5.95-5.95h-11.9c0,3.29,2.66,5.95,5.95,5.95Z"/>
            <polygon class="cls-3" points="12.78 18.23 6.83 36.08 18.74 36.08 12.78 18.23"/>
            <polygon class="cls-3" points="48.49 18.23 42.54 36.08 54.44 36.08 48.49 18.23"/>
            <g>
              <path class="cls-1" d="M19.13,16.74h-3.59c-.7,0-1.27.57-1.27,1.27v.22c0,.7.57,1.27,1.27,1.27h3.59v-2.76Z"/>
              <path class="cls-1" d="M45.73,16.74h-3.58v2.76h3.58c.7,0,1.27-.57,1.27-1.27v-.22c0-.7-.57-1.27-1.27-1.27Z"/>
            </g>
          </g>
        </g>
      </g>
    </g>
  </g>
</svg>